<?xml version="1.0" encoding="UTF-8"?>
<svg id="Layer_1" data-name="Layer 1" xmlns="http://www.w3.org/2000/svg" xmlns:xlink="http://www.w3.org/1999/xlink" viewBox="0 0 250 250">
  <defs>
    <style>
      .cls-1 {
        stroke-width: 2.24px;
      }

      .cls-1, .cls-2, .cls-3, .cls-4, .cls-5, .cls-6, .cls-7, .cls-8, .cls-9, .cls-10, .cls-11, .cls-12, .cls-13, .cls-14, .cls-15, .cls-16, .cls-17, .cls-18, .cls-19, .cls-20, .cls-21, .cls-22, .cls-23, .cls-24, .cls-25, .cls-26 {
        stroke-miterlimit: 10;
      }

      .cls-1, .cls-2, .cls-4, .cls-5, .cls-8, .cls-9, .cls-10, .cls-11, .cls-12, .cls-13, .cls-14, .cls-15, .cls-18, .cls-19, .cls-20, .cls-21, .cls-24, .cls-26 {
        stroke: #231f20;
      }

      .cls-1, .cls-2, .cls-8, .cls-13, .cls-14, .cls-22 {
        fill: #414142;
      }

      .cls-2, .cls-19 {
        stroke-width: 1.22px;
      }

      .cls-3, .cls-4, .cls-17, .cls-26 {
        stroke-width: .61px;
      }

      .cls-3, .cls-6, .cls-17, .cls-22, .cls-23 {
        stroke: #fff;
      }

      .cls-3, .cls-7, .cls-11, .cls-12, .cls-18, .cls-21, .cls-23, .cls-25, .cls-26 {
        stroke-linecap: round;
      }

      .cls-3, .cls-7, .cls-27, .cls-15, .cls-17, .cls-18, .cls-21, .cls-23, .cls-25, .cls-26 {
        fill: none;
      }

      .cls-28 {
        opacity: .53;
      }

      .cls-28, .cls-29, .cls-6, .cls-30, .cls-31, .cls-16, .cls-32, .cls-33, .cls-34, .cls-35 {
        fill: #231f20;
      }

      .cls-29 {
        opacity: .3;
      }

      .cls-4, .cls-5, .cls-36, .cls-19 {
        fill: #606161;
      }

      .cls-5 {
        stroke-width: .05px;
      }

      .cls-6 {
        stroke-width: 2.04px;
      }

      .cls-7 {
        stroke: #c9c9c3;
      }

      .cls-7, .cls-15, .cls-21, .cls-25 {
        stroke-width: .41px;
      }

      .cls-8, .cls-11, .cls-12 {
        stroke-width: 1.02px;
      }

      .cls-37, .cls-33 {
        opacity: .57;
      }

      .cls-9, .cls-10, .cls-14, .cls-16, .cls-18, .cls-23, .cls-24 {
        stroke-width: .82px;
      }

      .cls-9, .cls-24 {
        fill: #d6d6d7;
      }

      .cls-38 {
        fill: #fff;
      }

      .cls-10 {
        fill: #00aeef;
      }

      .cls-11 {
        fill: #f7ed36;
      }

      .cls-12, .cls-20 {
        fill: #343633;
      }

      .cls-39 {
        fill: #ffcc04;
      }

      .cls-13 {
        stroke-width: 1.84px;
      }

      .cls-40 {
        clip-path: url(#clippath-1);
      }

      .cls-31 {
        opacity: .55;
      }

      .cls-16 {
        stroke: #00aeef;
      }

      .cls-32 {
        opacity: .64;
      }

      .cls-41 {
        clip-path: url(#clippath-3);
      }

      .cls-20 {
        stroke-width: 1.63px;
      }

      .cls-42 {
        clip-path: url(#clippath-2);
      }

      .cls-22 {
        stroke-width: 4.69px;
      }

      .cls-43 {
        clip-path: url(#clippath);
      }

      .cls-34 {
        opacity: .68;
      }

      .cls-35 {
        opacity: .83;
      }

      .cls-24 {
        opacity: .4;
      }

      .cls-25 {
        stroke: #d6d6d7;
      }
    </style>
    <clipPath id="clippath">
      <rect class="cls-27" x="131.7" y="121.03" width="3.84" height="3.84"/>
    </clipPath>
    <clipPath id="clippath-1">
      <rect class="cls-27" x="113.42" y="121.03" width="3.84" height="3.84"/>
    </clipPath>
    <clipPath id="clippath-2">
      <rect class="cls-27" x="130.49" y="128.29" width="3.49" height="1.97"/>
    </clipPath>
    <clipPath id="clippath-3">
      <rect class="cls-27" x="114.94" y="128.29" width="3.49" height="1.97"/>
    </clipPath>
  </defs>
  <path class="cls-38" d="M135.12,66.56l-3.96-4.05c-1.48-1.52-3.02-3.09-4.04-5.02-1.45-2.72-1.77-6.01-.98-10.06.23-1.2.54-2.39.83-3.53.45-1.76.88-3.43,1.06-5.1.08-.71.09-2.85.07-4.66v-.26c-.01-.66.42-2.12,1.04-2.35l.25-.09c.47-.17,1.37.57,2.2,1.58.07.08.17.2.28.34.23.28.53.65.83,1.02.6.74,1.19,1.47,1.19,1.47,2.19,2.76,2.12,4.62,2.02,7.2l-.02.51c-.05,1.41-.51,2.72-.91,3.87-.13.38-.26.74-.37,1.09-1.22,3.96-.7,8.26-.19,12.42l.69,5.62ZM131.79,39.62c-.23,1.8-.68,3.54-1.11,5.23-.29,1.14-.57,2.22-.78,3.32-.52,2.66-.47,4.76.15,6.51-.04-2.41.17-4.87.91-7.28.13-.42.27-.83.41-1.22.34-.98.67-1.91.7-2.75l.02-.52c.06-1.54.09-2.38-.3-3.28Z"/>
  <path class="cls-38" d="M112.02,57.16c-.5,0-1.01-.15-1.48-.45l-.11-.08c-1.87-1.38-2.82-4.46-2.99-6.1v-.03c-.21-1.75-.16-3.41.15-4.95.12-.58.27-1.12.42-1.64.14-.48.27-.94.36-1.39.18-.86.18-1.8.02-2.73-.07-.39-.15-.73-.22-1.04-.16-.69-.59-2.52,1.11-3.23l.42-.17.45.02c1.04.04,1.68.69,2.15,1.17.09.09.19.19.3.3l.06.06c.51.53.95,1.03,1.34,1.53,1.58,1.91,3.05,5.3,2.57,8.25-.19,1.24-.55,2.39-.9,3.5-.34,1.07-.65,2.09-.78,3.08l-.03.19s-.03.2-.05.32c-.14.96-.38,2.56-1.78,3.2-.32.15-.66.22-1.01.22ZM112.3,43.71c-.11.45-.23.89-.35,1.31-.13.47-.26.91-.35,1.33-.22,1.09-.26,2.29-.11,3.57.1-.33.2-.66.3-.99.32-1.01.62-1.97.76-2.9v-.03c.11-.64,0-1.46-.25-2.3Z"/>
  <path class="cls-38" d="M147.52,123.81c-.94,0-1.83-.32-2.62-.93-1.17-.91-2.02-2.48-2.21-4.09-.07-.59-.08-1.15-.1-1.7-.02-.94-.04-1.75-.35-2.29-.62-1.09-2.65-1.51-4.35-1.76-5.63-.82-11.36-1.36-17.03-1.62-.28-.01-.81-.04-.98.04-.05.02-.2.12-.3.19-.19.13-.43.29-.72.43-1.47.74-2.98.54-4.19.39-.28-.04-.54-.07-.79-.09-2.35-.2-4.82.98-6.01,2.87-.05.08-.1.16-.14.23-.27.45-.65,1.06-1.27,1.57-1.02.82-2.42,1.13-3.85.85-4.43-.87-4.49-4.77-4.52-7.1-.02-1.06-.03-2.26-.38-2.72-.33-.43-.89-.85-1.48-1.3-1.06-.8-2.38-1.8-2.99-3.42l-.95-2.54,5.17-.41c-.85-2.48-.8-5.45.21-8.45.74-2.18,1.84-4.17,2.9-6.08.62-1.11,1.2-2.16,1.71-3.24,1.53-3.21,2.45-6.8,3.35-10.26.35-1.37.72-2.8.54-4.02-.09-.61-.33-1.27-.58-1.98-.45-1.27-.97-2.71-.83-4.34l.16-1.78,1.78-.08c2.04-.09,4.13.89,5.74,2.71.83.93,1.43,1.93,2.01,2.9.25.41.48.8.73,1.18.22.34.47.68.72,1.05h0c-.02-1.23.08-2.45.2-3.63.36-3.47.93-7.31,2.22-10.98.9-2.57,2.31-4.93,4.08-6.99l3.54-4.12-1.37,6.67c-.14.69-.32,1.37-.5,2.05-.85,3.15-.73,6.54.37,9.62.79,2.22,2.06,4.29,3.4,6.48.97,1.58,1.97,3.22,2.8,4.95,2.14,4.44,3.07,9.37,2.7,14.25-.08.99-.2,1.97-.33,2.91-.19,1.42-.36,2.76-.36,4.08,0,1.58.3,3.78,1.73,5.24.42.43.67.51.76.52.23.03.64-.2.86-.55.28-.46.41-1.13.41-2.17,0-2.15-.44-4.34-.91-6.66-.78-3.87-1.59-7.88-.31-11.92.35-1.1.82-2.11,1.28-3.08.2-.42.38-.81.56-1.21,2.77-6.31,2.33-13.96-1.14-19.96l-1.11-1.92,2-.95c.97-.46,2.07-.36,3.28.29,5.84,3.16,9.51,9.74,9.14,16.39-.17,3-1.07,5.81-1.95,8.53-.7,2.18-1.37,4.23-1.65,6.33-.02.12-.03.24-.05.36l4.22,2.5c2.52,1.5,5.05,3.2,5.82,6.13.81,3.07-.79,5.85-2.08,8.09-.15.26-.3.53-.45.79-1.98,3.55-3.07,7.54-3.14,11.54,0,.44.04.74.08.92.23-.15.61-.48,1.06-1.12l6.82-9.6-3.19,11.33c-.65,2.32-1.49,4.62-2.48,6.85-.38.85-1.53,3.45-4.18,3.8-.18.02-.37.04-.55.04ZM146.45,114.52c.19.85.21,1.69.22,2.47.01.47.02.91.07,1.31.06.53.35,1.11.66,1.36.09.07.12.07.13.06.01,0,.38-.06.98-1.41.25-.56.49-1.12.71-1.69-.32-.05-.59-.14-.79-.22h0c-.6-.24-1.44-.77-1.99-1.89ZM99.72,104.33c.43.37.86.78,1.23,1.26,1.18,1.53,1.21,3.45,1.23,5.15.04,2.8.31,2.97,1.22,3.15.27.05.48,0,.52-.03.07-.06.23-.32.34-.5.06-.1.12-.2.18-.3,2-3.16,5.94-5.08,9.8-4.75.33.03.66.07.97.11.73.09,1.48.19,1.84.01.06-.03.18-.11.29-.18.25-.16.55-.37.94-.54,1.03-.45,2.09-.4,2.78-.37,5.81.26,11.68.82,17.44,1.65,2.78.4,5.83,1.17,7.31,3.78.08.14.15.28.21.41-.1-.49-.15-1.04-.14-1.68.08-4.67,1.34-9.33,3.65-13.46.15-.27.31-.55.47-.83.98-1.71,1.91-3.33,1.73-4.71-.44,1.14-1.32,2.14-2.43,2.73-1.22.65-2.59.71-3.76.19-1.76-.79-2.46-2.59-2.72-3.27-1.29-3.36-1.72-7-1.24-10.54.33-2.45,1.08-4.78,1.81-7.03.83-2.58,1.62-5.02,1.76-7.5.19-3.37-.98-6.72-3.08-9.3,1.53,5.7,1.13,11.83-1.28,17.32-.2.45-.41.89-.61,1.31-.42.89-.82,1.72-1.08,2.56-.96,3.05-.29,6.37.42,9.89.49,2.41.99,4.91.99,7.46,0,1.23-.11,2.84-1.01,4.3-1.08,1.76-3.07,2.75-4.96,2.46-1.1-.17-2.13-.74-3.06-1.71-1.88-1.93-2.88-4.73-2.89-8.09,0-1.59.2-3.13.4-4.61.12-.93.24-1.81.3-2.69.31-4.16-.48-8.37-2.31-12.17-.74-1.55-1.65-3.02-2.6-4.58-1.39-2.27-2.83-4.62-3.76-7.25-.02-.06-.04-.12-.06-.18-.14,1-.26,2-.36,2.99-.2,1.88-.34,3.7.1,5.34.26.98.76,1.97,1.28,3.01.24.47.48.97.71,1.47,1.56,3.41,2.29,7.18,2.11,10.89-.06,1.3-.25,2.98-1.19,4.47-1.13,1.81-3.12,2.85-5.08,2.66-2.23-.22-4.14-2.02-4.86-4.59-.83-2.93-.21-5.79.39-8.54.56-2.57,1.08-5,.24-7.01-.31-.74-.83-1.47-1.37-2.25-.24-.34-.49-.69-.73-1.06-.29-.44-.56-.89-.82-1.32-.38-.63-.74-1.24-1.14-1.77.16.52.31,1.07.4,1.65.3,2.05-.19,3.96-.62,5.64-.94,3.65-1.92,7.43-3.61,10.99-.57,1.2-1.21,2.35-1.83,3.47-1.02,1.84-1.98,3.58-2.6,5.41-1.02,3.02-.73,5.86.79,7.59l2.68,3.06-5.29.42ZM145.48,84.88c.05,1.98.44,3.95,1.15,5.81.34.87.55,1,.59,1.02.17,0,.67-.37.74-.76.15-.86-.37-1.97-1.01-3.22l-1.47-2.85ZM118.37,75.9c-.1,1.54-.43,3.05-.74,4.47-.51,2.37-1,4.61-.45,6.57.21.75.75,1.58,1.34,1.64.39.04.93-.3,1.22-.76.44-.7.54-1.7.57-2.5.15-3.07-.46-6.18-1.75-9-.06-.14-.13-.28-.19-.41Z"/>
  <path class="cls-22" d="M124.49,150.77l-2.6-2.6-1.1,1.1-4.68-5.5c-.81-.95-1.96-1.55-3.21-1.67l-3.26.08c-2.6.06-5.14-.75-7.21-2.32l-2.69-1.82.99,2.38c.02.07-.06.12-.11.06l-3.95-3.23c-1.06-1.18-1.88-2.54-2.43-4.03l-.29-.79c-.42-1.14-.46-2.4-.12-3.56l1.49-4.99.45-1.43c.44-1.38.51-2.85.2-4.27l-1.11-5.12c-.63-2.9-.78-5.88-.44-8.83l.35-6.37c.16-2.85,1.91-11.59,3.23-15.2,1.42-3.87,3.29-7.9,5.41-11.44h0c.51-.86,1.69-1.02,2.41-.33l.44.42c1.56,1.47,2.84,3.22,3.77,5.15,1.29,2.71,2.3,5.75,3.17,8.33l.85,2.53c1.15,3.42,1.8,6.99,1.92,10.6l.09,5.08c0,.22.22.38.43.31l3.97-1.16c2.64-.77,5.44-.77,8.07,0l3.97,1.16c.21.06.42-.09.43-.31l.09-5.08c.12-3.61.77-7.18,1.92-10.6l.85-2.53c.87-2.58,1.88-5.63,3.17-8.33.92-1.94,2.21-3.68,3.77-5.15l.44-.42c.73-.69,1.9-.52,2.41.33h0c2.12,3.54,3.99,7.57,5.41,11.44,1.32,3.61,3.07,12.35,3.23,15.2l.35,6.37c.34,2.95.19,5.93-.44,8.83l-1.11,5.12c-.31,1.42-.24,2.89.2,4.27l.45,1.43,1.49,4.99c.35,1.17.31,2.42-.12,3.56l-.29.79c-.55,1.48-1.38,2.85-2.43,4.03l-3.95,3.23c-.05.05-.13,0-.11-.06l.79-2.38-2.49,1.82c-2.07,1.57-4.61,2.39-7.21,2.32l-3.26-.08c-1.25.11-2.4.71-3.21,1.67l-4.68,5.5-1.1-1.1-2.6,2.6Z"/>
  <polygon class="cls-38" points="161.06 194.55 88.89 194.55 60.71 164.15 189.24 164.15 161.06 194.55"/>
  <path class="cls-38" d="M126.42,193.42l10.75-45.35-2.49-.73-12.17.64.02-6.91,18.52-3.83,7.08,3.71,21.05-34.02,2.89-3.83c.51-1.58,1.49-4.23,2.23-5.35.94-1.55,1.85-3.01,4.15-3.99,1.39-.59,3.43-.41,3.51-.4,3.28.31,5.91,3.3,5.98,6.8.07,2.89-1.09,6.14-3.16,7.76l10.83,2.36c2.79.61,5.51,1.53,8.1,2.74l11.63,5.46c2.16,1.01,4.14,2.35,5.88,3.97l13.68,12.74c.84.78,1.57,1.67,2.17,2.65l9.37,15.21.06.12c.52,1.04.36,2.31-.46,3.13,0,0-.01.01-.02.02h0s-.34.23-.34.23c-1.15.77-2.68.5-3.5-.62l-26.12-2.15-14.43,5.39.08.11c.75,1.13.5,2.64-.56,3.46h0c-1.06.82-2.56.69-3.46-.3h0c-.27-.3-.9-1.01-1.81-2.05h-15.23l-10.42,8.04-18.17,3.43-25.64,21.56ZM138.17,143.05l5.08,1.49-8.31,35.05,14.86-12.5,18.28-3.45,10.83-8.36h18.56l17.89-6.68,23.56,1.94-6.18-10.03c-.36-.59-.8-1.12-1.3-1.59l-13.68-12.74c-1.36-1.26-2.89-2.3-4.57-3.09l-11.63-5.46c-2.24-1.05-4.6-1.85-7.02-2.38l-16.83-3.68c-.96-.21-1.77-.83-2.21-1.71-.28-.55-.39-1.15-.34-1.75l-.45-.05-1.3,1.73-21.36,34.53c-1.18,1.85-3.63,2.51-5.57,1.49l-6.16-3.23-2.14.44ZM246.31,152.93h0s0,0,0,0ZM179.01,104.36s.01.02.02.03l.37-.24-.39.21ZM178.56,100.59c-.09.14-.22.4-.36.74.5-.57,1.2-1,2.16-1.09l.77-.07,1.7.93c.03-.27.05-.54.04-.82-.02-.86-.7-1.77-1.37-1.84-.36-.03-.89,0-1.11.04-.73.33-.95.65-1.75,1.97l-.09.13Z"/>
  <path class="cls-38" d="M97.94,171.86l-18.17-3.43-10.42-8.04h-15.23c-.9,1.04-1.54,1.75-1.81,2.04h0c-.9,1-2.41,1.13-3.46.31h0c-1.06-.82-1.3-2.33-.56-3.46l.08-.11-14.43-5.39-26.12,2.15c-.82,1.11-2.35,1.38-3.5.62,0,0-.34-.23-.34-.23h0s-.01-.01-.02-.02c-.82-.82-.99-2.09-.46-3.13l.06-.12,9.37-15.21c.6-.98,1.33-1.87,2.17-2.65l13.68-12.74c1.74-1.62,3.72-2.96,5.88-3.97l11.63-5.46c2.58-1.21,5.31-2.14,8.1-2.74l10.83-2.36c-2.07-1.62-3.23-4.87-3.16-7.76.08-3.5,2.71-6.49,5.98-6.8.09,0,2.13-.19,3.51.4,2.3.98,3.21,2.44,4.15,3.99.74,1.12,1.72,3.77,2.23,5.35l2.89,3.83,21.05,34.02,7.08-3.71,18.52,3.83.02,6.91-12.17-.64-2.49.73,10.75,45.35-25.64-21.56ZM109.69,142.61l-6.16,3.23c-1.95,1.02-4.39.37-5.57-1.49l-21.36-34.53-1.3-1.73-.45.05c.05.6-.06,1.2-.34,1.75-.44.88-1.25,1.5-2.21,1.71l-16.83,3.68c-2.42.53-4.78,1.33-7.02,2.38l-11.63,5.46c-1.68.79-3.22,1.83-4.57,3.09l-13.68,12.74c-.5.47-.94,1-1.3,1.59l-6.18,10.03,23.56-1.94,17.89,6.68h18.56s10.83,8.36,10.83,8.36l18.28,3.45,14.86,12.5-8.31-35.05,5.08-1.49-2.14-.44ZM3.69,152.94h0s0,0,0,0ZM70.6,104.15l.37.24s.01-.02.02-.03l-.39-.21ZM71.36,100.46c-.8-1.32-1.02-1.64-1.75-1.97-.21-.04-.75-.08-1.11-.04-.67.06-1.35.97-1.37,1.84,0,.28,0,.55.04.82l1.7-.93.77.07c.97.09,1.66.52,2.16,1.09-.15-.33-.27-.6-.36-.74l-.09-.13Z"/>
  <circle class="cls-30" cx="92.24" cy="112.77" r=".76"/>
  <line class="cls-15" x1="89.47" y1="115.59" x2="92.24" y2="112.82"/>
  <circle class="cls-30" cx="92.95" cy="109.29" r=".76"/>
  <path class="cls-6" d="M171.05,85.82l-45.87-18.9-46.05,18.9-13.92,67.39,59.79,65.38,59.97-65.38-13.92-67.39Z"/>
  <polygon class="cls-39" points="174.69 151.42 125.01 205.57 75.49 151.42 87.02 95.6 125.16 79.94 163.16 95.6 174.69 151.42"/>
  <polygon class="cls-20" points="243.32 153.48 215.72 151.2 197.93 157.84 179.79 157.84 169.16 166.04 150.93 169.48 130.68 186.51 140.68 144.33 149.82 146.36 173.95 109.21 188.99 112.67 199.44 115.06 210.69 120.2 217.53 123.91 229.64 134.85 233.98 138.74 243.32 153.48"/>
  <polyline class="cls-17" points="177.45 112 189.24 123.02 199.62 125.63 214.43 146.56"/>
  <polyline class="cls-3" points="175.76 111.04 174.67 135.71 178.43 152.77"/>
  <path class="cls-14" d="M177.01,109.84l1.25.62,1.04,15.7,7.8,15.93,12.51,18.62s0,.03-.02.02c-1.06-1.17-8.43-9.4-14.17-18.12-4.97-7.55-8.31-16.1-8.4-16.1-.21,0-1.25-16.67-1.25-16.67h1.25Z"/>
  <path class="cls-14" d="M174.95,109.48l.9,1.17-7.18,37.81-1.62,13.77,2.93,8.44s-.01.02-.02.01c-.44-.59-3.8-5.16-4.72-8.43-.32-1.16,1.22-14.15,1.13-14.18-.19-.08,7.41-39.03,7.41-39.03l1.17.43Z"/>
  <polygon class="cls-20" points="6.76 153.41 34.45 151.2 52.23 157.84 70.37 157.84 81 166.04 99.23 169.48 119.48 186.51 109.48 144.33 100.34 146.36 76.21 109.21 61.17 112.67 50.72 115.06 39.47 120.2 32.63 123.91 20.52 134.85 16.18 138.74 6.76 153.41"/>
  <polyline class="cls-17" points="72.71 112 60.92 123.02 50.54 125.63 35.73 146.56"/>
  <polyline class="cls-3" points="98.91 165.56 98.91 160.75 101.62 157.42 102.48 154.54 104.03 151.9 110.88 149.42"/>
  <polyline class="cls-3" points="151.25 165.56 151.25 160.75 148.54 157.42 147.68 154.54 146.13 151.9 139.28 149.42"/>
  <polyline class="cls-17" points="221.65 135.62 211.38 125.31 201.23 120.17 192.16 119.02 182.36 116.6 184.12 126.51 190.1 137.96"/>
  <polyline class="cls-17" points="142.49 146.98 152.13 151.31 154.39 156.31"/>
  <polyline class="cls-17" points="159.28 151.24 155.8 150.28 150.49 146.17"/>
  <line class="cls-17" x1="171.6" y1="117.54" x2="163.16" y2="139.16"/>
  <circle class="cls-38" cx="151.25" cy="165.56" r=".76"/>
  <circle class="cls-38" cx="154.39" cy="156.31" r=".76"/>
  <circle class="cls-38" cx="162.44" cy="157.08" r=".76"/>
  <circle class="cls-38" cx="159.24" cy="151.24" r=".76"/>
  <circle class="cls-38" cx="163.16" cy="139.16" r=".76"/>
  <circle class="cls-38" cx="165.19" cy="143.95" r=".76"/>
  <circle class="cls-38" cx="178.43" cy="152.77" r=".76"/>
  <circle class="cls-38" cx="170.46" cy="147.32" r=".76"/>
  <circle class="cls-38" cx="183.36" cy="143.48" r=".76"/>
  <circle class="cls-38" cx="190.01" cy="137.84" r=".76"/>
  <circle class="cls-38" cx="214.43" cy="146.56" r=".76"/>
  <circle class="cls-38" cx="143.25" cy="169.39" r=".76"/>
  <polyline class="cls-3" points="143.93 151.11 145.79 159.31 143.23 169.46"/>
  <polyline class="cls-17" points="157 150.61 158.8 154.73 162.44 157.08"/>
  <polyline class="cls-17" points="167.76 127.52 168.48 130.94 165.19 143.91"/>
  <circle class="cls-38" cx="157.92" cy="143.15" r=".76"/>
  <polyline class="cls-17" points="165.68 132.74 162.37 135.03 157.92 143.18"/>
  <polyline class="cls-17" points="175.05 127.75 181.45 140.87 183.34 143.48"/>
  <polyline class="cls-17" points="174.81 132.5 172.6 135.29 170.52 147.32"/>
  <polyline class="cls-17" points="28.51 135.62 38.78 125.31 48.93 120.17 58 119.02 67.8 116.6 66.04 126.51 60.06 137.96"/>
  <path class="cls-14" d="M73.15,109.84l-1.25.62-1.04,15.7-7.8,15.93-12.52,18.64s0,.03.02.02c1-1.11,8.42-9.37,14.19-18.14,4.97-7.55,8.31-16.1,8.4-16.1.21,0,1.25-16.67,1.25-16.67h-1.25Z"/>
  <polyline class="cls-17" points="107.67 146.98 98.03 151.31 95.77 156.31"/>
  <polyline class="cls-17" points="90.88 151.24 94.36 150.28 99.67 146.17"/>
  <line class="cls-17" x1="78.56" y1="117.54" x2="87" y2="139.16"/>
  <polyline class="cls-3" points="74.4 111.04 75.49 135.71 71.73 152.77"/>
  <path class="cls-14" d="M75.21,109.48l-.9,1.17,7.18,37.81,1.62,13.77-2.93,8.44s.01.02.02.01c.44-.59,3.8-5.16,4.72-8.43.32-1.16-1.22-14.15-1.13-14.18.19-.08-7.41-39.03-7.41-39.03l-1.17.43Z"/>
  <path class="cls-2" d="M125.08,143.15l-15.6-3.22-6.97,3.65c-.79.41-1.76.15-2.24-.6l-21.41-34.61-2.24-2.97-5.19.52.97,2.19c.18.41-.06.88-.5.98l-16.83,3.68c-2.61.57-5.14,1.43-7.56,2.56l-11.63,5.46c-1.91.9-3.68,2.09-5.23,3.53l-13.68,12.74c-.67.62-1.26,1.34-1.74,2.12l-9.55,15.5s.01.03.02.02l10.7-14.83c.42-.59.91-1.13,1.45-1.61l13.75-12.38c1.54-1.39,3.28-2.53,5.16-3.39l10.96-5c2.3-1.05,4.71-1.86,7.18-2.4l17.78-3.91c.92-.2,1.87.19,2.38.98l22.06,34.06c1.24,1.92,3.6,2.8,5.8,2.15l12.25-3.6,9.91.52"/>
  <path class="cls-2" d="M125.08,143.15l15.6-3.22,6.97,3.65c.79.41,1.76.15,2.24-.6l21.41-34.61,2.24-2.97,5.19.52-.97,2.19c-.18.41.06.88.5.98l16.83,3.68c2.61.57,5.14,1.43,7.56,2.56l11.63,5.46c1.91.9,3.68,2.09,5.23,3.53l13.68,12.74c.67.62,1.26,1.34,1.74,2.12l9.37,15.21s-.02.06-.04.03l-10.5-14.56c-.42-.59-.91-1.13-1.45-1.61l-13.75-12.38c-1.54-1.39-3.28-2.53-5.16-3.39l-10.96-5c-2.3-1.05-4.71-1.86-7.18-2.4l-17.78-3.91c-.92-.2-1.87.19-2.38.98l-22.06,34.06c-1.24,1.92-3.6,2.8-5.8,2.15l-12.25-3.6-9.91.52"/>
  <circle class="cls-38" cx="98.91" cy="165.56" r=".76"/>
  <circle class="cls-38" cx="95.77" cy="156.31" r=".76"/>
  <circle class="cls-38" cx="87.72" cy="157.08" r=".76"/>
  <circle class="cls-38" cx="90.92" cy="151.24" r=".76"/>
  <circle class="cls-38" cx="87" cy="139.16" r=".76"/>
  <circle class="cls-38" cx="84.97" cy="143.95" r=".76"/>
  <circle class="cls-38" cx="71.73" cy="152.77" r=".76"/>
  <circle class="cls-38" cx="79.7" cy="147.32" r=".76"/>
  <circle class="cls-38" cx="66.8" cy="143.48" r=".76"/>
  <circle class="cls-38" cx="60.15" cy="137.84" r=".76"/>
  <circle class="cls-38" cx="35.73" cy="146.56" r=".76"/>
  <circle class="cls-38" cx="28.51" cy="135.62" r=".76"/>
  <circle class="cls-38" cx="106.91" cy="169.39" r=".76"/>
  <polyline class="cls-3" points="106.23 151.11 104.37 159.31 106.93 169.46"/>
  <polyline class="cls-17" points="93.16 150.61 91.36 154.73 87.72 157.08"/>
  <polyline class="cls-17" points="82.4 127.52 81.68 130.94 84.97 143.91"/>
  <circle class="cls-38" cx="92.24" cy="143.15" r=".76"/>
  <polyline class="cls-17" points="84.48 132.74 87.79 135.03 92.24 143.18"/>
  <polyline class="cls-17" points="75.11 127.75 68.71 140.87 66.82 143.48"/>
  <polyline class="cls-17" points="75.35 132.5 77.56 135.29 79.64 147.32"/>
  <g>
    <path class="cls-11" d="M176.46,106.29c-1.16-.28-2.45-.54-2.21-1.56.3-1.17,1.6-4.74,2.21-5.6.88-1.45,1.43-2.35,3-3.02.5-.21,1.61-.27,2.27-.2,2.06.2,3.63,2.24,3.68,4.32.06,2.71-1.35,5.87-3.19,6.15-.47-.27-.56-3.32-1.27-3.55-1.61-.53-1.46,3.08-2.4,3.45,0,0-1.48.15-2.1,0Z"/>
    <path class="cls-12" d="M181.26,103.15s-.95-1.8-2.57-1.4"/>
  </g>
  <polyline class="cls-13" points="124.49 144.39 139.58 144.39 140.6 153.55 138.13 173.22 124.49 184.99 110.85 173.22 108.38 153.55 109.4 144.39 124.49 144.39"/>
  <path class="cls-19" d="M124.49,166.87l-7.51-5.74c-.14-.11-.35-.07-.44.08l-1.49,2.37c-.13.2-.43.18-.53-.03l-5.51-11.81c-.07-.16-.26-.22-.41-.14l-2.12,1.09c-.2.1-.44-.04-.44-.27v-4.04s0-.07.02-.1l2.52-7.21s.01-.04.01-.06l.77-5.66c.02-.15.15-.26.29-.26l14.83-.26,14.83.26c.15,0,.27.11.29.26l.77,5.66s0,.04.01.06l2.52,7.21s.02.07.02.1v4.04c0,.23-.24.37-.44.27l-2.12-1.09c-.15-.08-.34-.01-.41.14l-5.51,11.81c-.1.22-.4.24-.53.03l-1.49-2.37c-.09-.15-.3-.19-.44-.08l-7.51,5.74Z"/>
  <path class="cls-4" d="M124.49,158.52l-5.55-4.24c-.1-.08-.26-.05-.33.06l-1.1,1.75c-.09.15-.32.14-.39-.02l-4.07-8.74c-.05-.12-.19-.16-.31-.1l-1.57.81c-.15.08-.33-.03-.33-.2v-2.99s0-.05.01-.07l1.86-5.34s0-.03.01-.04l.57-4.19c.01-.11.11-.19.22-.19l10.97-.19,10.97.19c.11,0,.2.08.22.19l.57,4.19s0,.03.01.04l1.86,5.34s.01.05.01.07v2.99c0,.17-.18.28-.33.2l-1.57-.81c-.11-.06-.25-.01-.31.1l-4.07,8.74c-.07.16-.3.17-.39.02l-1.1-1.75c-.07-.11-.22-.14-.33-.06l-5.55,4.24Z"/>
  <path class="cls-18" d="M180.46,97.75c.77-.29,2.98.93,3.18,1.81"/>
  <g>
    <path class="cls-11" d="M73.64,106.29c1.16-.28,2.45-.54,2.21-1.56-.3-1.17-1.6-4.74-2.21-5.6-.88-1.45-1.43-2.35-3-3.02-.5-.21-1.61-.27-2.27-.2-2.06.2-3.63,2.24-3.68,4.32-.06,2.71,1.35,5.87,3.19,6.15.47-.27.56-3.32,1.27-3.55,1.61-.53,1.46,3.08,2.4,3.45,0,0,1.48.15,2.1,0Z"/>
    <path class="cls-12" d="M68.84,103.15s.95-1.8,2.57-1.4"/>
  </g>
  <path class="cls-18" d="M69.64,97.75c-.77-.29-2.98.93-3.18,1.81"/>
  <polygon class="cls-29" points="133.86 170.41 131.17 167.52 124.49 170.39 117.81 167.52 115.12 170.41 111.89 166.65 112.62 173 124.49 182.93 136.36 173 137.09 166.65 133.86 170.41"/>
  <polygon class="cls-29" points="133.86 168.95 131.17 166.06 124.49 168.93 117.81 166.06 115.12 168.95 111.89 165.19 112.62 171.54 124.49 181.47 136.36 171.54 137.09 165.19 133.86 168.95"/>
  <path class="cls-28" d="M124.49,147.47s-2.07.14-2.52-.48c-.45-.62-2.28-5.67-5.86-5.75-.17,0-6.06.67-6.06.67,0,0-2.44,6.03-2.49,5.99s0,3.5,0,3.5l1.45-1.29,1.61.44,4.62,10.39,1.94-2.35,7.33,5.56h-.07l7.33-5.56,1.94,2.35,4.62-10.39,1.61-.44,1.45,1.29s.05-3.54,0-3.5-2.49-5.99-2.49-5.99c0,0-5.73-.73-5.88-.66s-5.58,5.13-6.03,5.75-2.52.48-2.52.48Z"/>
  <path class="cls-35" d="M124.49,144s-1.54.09-1.87-.31c-.34-.4-1.7-3.7-4.36-3.75-.13,0-4.5.44-4.5.44,0,0-1.81,3.94-1.85,3.91s0,2.28,0,2.28l1.08-.84,1.2.29,3.44,6.78,1.44-1.53,5.45,3.63h-.05l5.45-3.63,1.44,1.53,3.44-6.78,1.2-.29,1.08.84s.04-2.31,0-2.28-1.85-3.91-1.85-3.91c0,0-4.26-.48-4.37-.43s-4.15,3.35-4.48,3.75-1.87.31-1.87.31Z"/>
  <path class="cls-8" d="M124.49,150.77l-2.6-2.6-1.1,1.1-4.68-5.5c-.81-.95-1.96-1.55-3.21-1.67l-3.26.08c-2.6.06-5.14-.75-7.21-2.32l-2.69-1.82.99,2.38c.02.07-.06.12-.11.06l-3.95-3.23c-1.06-1.18-1.88-2.54-2.43-4.03l-.29-.79c-.42-1.14-.46-2.4-.12-3.56l1.49-4.99.45-1.43c.44-1.38.51-2.85.2-4.27l-1.11-5.12c-.63-2.9-.78-5.88-.44-8.83l.35-6.37c.16-2.85,1.91-11.59,3.23-15.2,1.42-3.87,3.29-7.9,5.41-11.44h0c.51-.86,1.69-1.02,2.41-.33l.44.42c1.56,1.47,2.84,3.22,3.77,5.15,1.29,2.71,2.3,5.75,3.17,8.33l.85,2.53c1.15,3.42,1.8,6.99,1.92,10.6l.09,5.08c0,.22.22.38.43.31l3.97-1.16c2.64-.77,5.44-.77,8.07,0l3.97,1.16c.21.06.42-.09.43-.31l.09-5.08c.12-3.61.77-7.18,1.92-10.6l.85-2.53c.87-2.58,1.88-5.63,3.17-8.33.92-1.94,2.21-3.68,3.77-5.15l.44-.42c.73-.69,1.9-.52,2.41.33h0c2.12,3.54,3.99,7.57,5.41,11.44,1.32,3.61,3.07,12.35,3.23,15.2l.35,6.37c.34,2.95.19,5.93-.44,8.83l-1.11,5.12c-.31,1.42-.24,2.89.2,4.27l.45,1.43,1.49,4.99c.35,1.17.31,2.42-.12,3.56l-.29.79c-.55,1.48-1.38,2.85-2.43,4.03l-3.95,3.23c-.05.05-.13,0-.11-.06l.79-2.38-2.49,1.82c-2.07,1.57-4.61,2.39-7.21,2.32l-3.26-.08c-1.25.11-2.4.71-3.21,1.67l-4.68,5.5-1.1-1.1-2.6,2.6Z"/>
  <path class="cls-15" d="M141.21,108.42l-2.12-2.91c-1.04-1.43-1.82-3.03-2.3-4.73l-.99-3.49c-.28-1-.4-2.07-.41-3.12,0-1.19.26-3.12.57-4.27l1.62-5.99c.18-.65.38-1.29.61-1.93.5-1.35,1.39-3.74,1.88-4.75.5-1.05,1.21-2.16,1.9-3.1.57-.78,1.37-1.58,1.37-1.58.8-.95,1.49-.59,1.88.06l2.8,5.57c1.15,2.2,2.04,4.52,2.65,6.92l1.58,7.29c.41,1.87.7,3.77.87,5.68l.26,5.72c.12,2.72-.31,5.44-1.26,7.99l-.63,1.68c-.51,1.37-1.28,2.64-2.27,3.72l-2.03,2.23"/>
  <path class="cls-26" d="M133.95,103.88l6.28,3.85c1.47,1.03,2.57,2.3,3.43,3.76.7,1.19,1.23,2.5,1.67,3.89l3.32,8.47,4.97,6.5c.22.28.24.67.05.98l-1.65,1.84.25-.05c.32-.07.54.3.34.55l-1.82,2.26"/>
  <path class="cls-15" d="M107.77,108.42l2.12-2.91c1.04-1.43,1.82-3.03,2.3-4.73l.99-3.49c.28-1,.4-2.07.41-3.12,0-1.19-.26-3.12-.57-4.27l-1.62-5.99c-.18-.65-.38-1.29-.61-1.93-.5-1.35-1.39-3.74-1.88-4.75-.5-1.05-1.21-2.16-1.9-3.1-.57-.78-1.37-1.58-1.37-1.58-.8-.95-1.49-.59-1.88.06l-2.8,5.57c-1.15,2.2-2.04,4.52-2.65,6.92l-1.58,7.29c-.41,1.87-.7,3.77-.87,5.68l-.26,5.72c-.12,2.72.31,5.44,1.26,7.99l.63,1.68c.51,1.37,1.28,2.64,2.27,3.72l2.03,2.23"/>
  <path class="cls-26" d="M115.03,103.88l-6.28,3.85c-2.67,1.87-4.12,4.55-5.1,7.65l-3.32,8.47-4.97,6.5c-.22.28-.24.67-.05.98l1.65,1.84-.25-.05c-.32-.07-.54.3-.34.55l1.82,2.26"/>
  <path class="cls-5" d="M151.85,111.68l-.63,1.68c-.5,1.34-1.25,2.56-2.21,3.62l-1.9,2.09-1.49-3.8c-.49-1.53-1.04-2.82-1.7-3.94-.71-1.2-1.53-2.21-2.51-3.07l.04-.03-2.12-2.91c-1.02-1.4-1.78-2.96-2.25-4.63l-.99-3.49c-.25-.9-.39-1.92-.4-3.04-.01-1.13.24-3.01.56-4.19l1.62-5.99c.17-.64.38-1.28.61-1.9.49-1.33,1.39-3.72,1.86-4.73.56-1.18,1.33-2.31,1.87-3.05.55-.75,1.33-1.53,1.34-1.54l.02-.02c.19-.23.48-.49.77-.47.28.02.5.31.6.48l2.8,5.56c1.14,2.17,2.02,4.48,2.62,6.84l1.58,7.29c.4,1.86.7,3.76.87,5.63l.26,5.72c.12,2.69-.3,5.34-1.24,7.87Z"/>
  <path class="cls-36" d="M113.27,94.17c-.01,1.12-.14,2.14-.4,3.04l-.99,3.49c-.47,1.67-1.23,3.23-2.25,4.63l-2.12,2.91.05.03c-1.87,1.64-3.22,3.9-4.2,7l-1.49,3.8-1.9-2.1c-.96-1.06-1.71-2.28-2.21-3.62l-.63-1.68c-.95-2.53-1.36-5.17-1.24-7.87l.26-5.7c.17-1.89.47-3.79.87-5.65l1.58-7.28c.6-2.38,1.48-4.68,2.62-6.86l2.8-5.56c.1-.18.32-.46.6-.48.29-.02.58.24.77.47l.02.02s.79.79,1.34,1.54c.54.74,1.31,1.87,1.87,3.05.48,1,1.37,3.39,1.86,4.73.23.62.43,1.26.6,1.9l1.62,5.99c.32,1.18.57,3.06.56,4.19Z"/>
  <path class="cls-21" d="M153.11,100.77l-2.35-3.13c-2.2-2.94-5.91-4.33-9.5-3.57l-5.5,1.16"/>
  <path class="cls-21" d="M138.13,83.15l3.15-1.03c3.12-1.02,6.56-.34,9.06,1.79h0"/>
  <path class="cls-21" d="M97.2,112.73l1.88-2.61c1.59-2.02,3.93-3.3,6.48-3.56l3.84-.39"/>
  <path class="cls-21" d="M95.87,100.77l2.35-3.13c2.2-2.94,5.91-4.33,9.5-3.57l5.5,1.16"/>
  <path class="cls-21" d="M110.85,83.15l-3.15-1.03c-3.12-1.02-6.56-.34-9.06,1.79h0"/>
  <polyline class="cls-26" points="126.1 147.47 128.09 145.05 128.46 146.28 130.38 143.58"/>
  <polyline class="cls-26" points="122.88 147.47 120.89 145.05 120.52 146.28 118.6 143.58"/>
  <path class="cls-10" d="M129.96,33.1c0,.62.04,4.05-.08,5.21-.34,3.16-1.43,6.24-2.04,9.38-.61,3.14-.72,6.44.84,9.38.95,1.78,2.47,3.34,3.97,4.88-.58-4.7-1.14-9.5.27-14.09.49-1.58,1.21-3.14,1.27-4.76.11-2.93.31-4.37-1.68-6.87,0,0-2.55-3.16-2.55-3.13Z"/>
  <path class="cls-10" d="M109.48,50.3c.15,1.56,1.04,3.86,2.17,4.69,1.04.66,1.08-1.35,1.24-2.03.3-2.26,1.34-4.38,1.69-6.63.35-2.11-.69-4.9-2.14-6.65-.41-.53-.84-1-1.22-1.39-.53-.51-.82-.89-1.12-.9-.18.08.13.88.33,2.04.2,1.14.2,2.35-.03,3.48-.21,1.04-.57,2.01-.78,3.04-.28,1.4-.31,2.84-.13,4.31v.04Z"/>
  <path class="cls-10" d="M149.22,114.52c-1.11-.45-1.32-1.83-1.3-2.96.08-4.34,1.25-8.66,3.4-12.5,1.3-2.32,3.01-4.81,2.33-7.36-.59-2.24-2.82-3.67-4.89-4.9.73,1.42,1.48,2.95,1.21,4.5-.27,1.56-2.08,2.95-3.58,2.27-.87-.39-1.32-1.29-1.65-2.14-1.17-3.03-1.56-6.33-1.12-9.53.68-5,3.3-9.67,3.58-14.7.32-5.73-2.8-11.62-8.07-14.48-.44-.24-.99-.46-1.45-.24,3.83,6.6,4.3,14.85,1.24,21.8-.6,1.36-1.32,2.67-1.76,4.08-1.83,5.8,1.31,11.92,1.31,17.97,0,1.11-.12,2.27-.71,3.23-.59.96-1.75,1.69-2.91,1.51-.75-.12-1.4-.58-1.91-1.11-1.72-1.76-2.31-4.27-2.31-6.67,0-2.39.51-4.76.69-7.15.34-4.51-.53-9.1-2.51-13.21-1.91-3.97-4.81-7.5-6.28-11.63-1.35-3.79-1.39-7.99-.12-11.8-2.78,4.54-3.71,9.86-4.26,15.08-.21,2.03-.37,4.1.16,6.08.45,1.68,1.38,3.21,2.11,4.8,1.43,3.12,2.09,6.55,1.93,9.95-.06,1.21-.23,2.45-.88,3.49-.65,1.04-1.87,1.84-3.15,1.71-1.6-.16-2.69-1.65-3.1-3.12-1.46-5.15,2.62-10.83.54-15.79-.55-1.31-1.49-2.44-2.28-3.64-.85-1.29-1.53-2.68-2.56-3.84-1.03-1.16-2.52-2.09-4.12-2.02-.18,2,1.1,3.85,1.4,5.84.24,1.62-.17,3.25-.58,4.83-.93,3.61-1.87,7.24-3.48,10.63-1.45,3.06-3.45,5.9-4.52,9.1-1.08,3.2-1.08,7,1.18,9.58-1.88.15-3.76.3-5.64.45.69,1.83,2.96,2.62,4.17,4.19,1.95,2.53-.94,8.16,3.68,9.06.75.15,1.6.04,2.18-.43.43-.34.68-.84.97-1.3,1.6-2.53,4.8-4.07,7.9-3.81,1.31.11,2.72.5,3.89-.09.39-.2.72-.5,1.13-.67.58-.25,1.24-.23,1.88-.2,5.77.26,11.53.81,17.24,1.64,2.23.32,4.76.89,5.83,2.77.81,1.42.5,3.15.7,4.75.19,1.6,1.39,3.42,3.09,3.2,1.31-.17,2.07-1.45,2.58-2.6.95-2.14,1.75-4.33,2.38-6.57-.83,1.17-2.18,2.5-3.55,1.94Z"/>
  <path class="cls-16" d="M147.97,98.62c.33.62-.33,1.48-.66,2.09-.99,1.62-2.24,3.16-3,4.87-.43.94-.71,1.95-1.07,2.91-1.29,3.75-4.39,2.94-7.22,1.38-1.83-.94-3.72-1.92-5.71-2.36-1.18-.27-2.39-.36-3.6-.39-2.91-.06-5.86-.04-8.65.77-.99.27-1.97.61-2.97.87-1.39.36-2.84.5-4.15.95-1.28.38-2.69,1.2-4.02.68-.94-.36-1.89-1.48-2.76-2.33-.47-.55-1.79-1.5-.49-1.89,2.7-.83,2.58-2.36,1.83-4.76-.48-1.57-.73-3.21-.68-4.85.08-3.45,1.27-6.77,2.77-9.84.38-.89,2.29-4.21,2.72-1.69.11.82.03,1.71.06,2.64.12,2.51.75,5.31,2.75,7,1.8,1.48,4.62,1.59,6.75.63,1.48-.67,2.57-1.92,3.4-3.28.8-1.29,1.46-2.68,2.09-4.05.39-.88,1.19-2.58,1.75-1.15.71,1.94-.08,4.72-.11,6.74,0,1.67.38,3.56.92,5.2.88,2.73,3.85,4.82,6.7,4.97,2.8.05,6.11-1.22,6.79-4.12.4-1.55.29-3.23.27-4.82,0-1.07-.06-1.93.35-2.03.2.02.36.21.49.37.68.82,1.51,2.67,2.38,3.65.48.58,1.14.98,1.83,1.21.44.17.95.29,1.21.63v.02Z"/>
  <path class="cls-9" d="M124.12,138.42l-2.5,2.36c-.24.23-.61.26-.89.08l-1.34-.87c-.37-.24-.86-.09-1.05.3l-2.24,4.87c-.15.33-.62.35-.8.03l-4.46-7.99c-.11-.19-.29-.32-.51-.36l-7.21-1.25c-1.56-.27-2.77-1.52-2.98-3.09l-.47-3.43c-.13-.93.27-1.85,1.03-2.4l1.39-1c.14-.1.24-.25.28-.41l1.88-7.66c.13-.52.16-1.07.1-1.6l-.22-1.92c-.07-.64.03-1.28.31-1.86l.24-.51c.36-.77,1.01-1.36,1.81-1.65l1.6-.57s.06-.02.09-.04l4.33-2.26c1.62-.84,3.33-1.49,5.1-1.93l2.32-.56c2.93-.71,5.99-.71,8.92,0l2.32.56c1.77.44,3.48,1.09,5.1,1.93l4.33,2.26s.06.03.09.04l1.6.57c.8.29,1.45.88,1.81,1.65l.24.51c.27.58.38,1.23.31,1.86l-.22,1.92c-.06.54-.03,1.08.1,1.6l1.88,7.66c.04.17.14.31.28.41l1.39,1c.76.55,1.16,1.47,1.03,2.4l-.47,3.43c-.22,1.57-1.42,2.82-2.98,3.09l-7.21,1.25c-.21.04-.4.17-.51.36l-4.46,7.99c-.18.32-.64.3-.8-.03l-2.24-4.87c-.18-.4-.68-.54-1.05-.3l-1.34.87c-.28.18-.65.15-.89-.08l-2.5-2.36c-.15-.14-.39-.14-.54,0Z"/>
  <path class="cls-30" d="M142.94,125.85c0,.58-.11,1.48-.63,1.74l-.83,2.15-3.99.59-1.81.62c-.67.35-.92-.56-1.38-1.16l-.59-.76c-.27-.35-.67-.56-1.11-.6l-1.06-.08c-.81-.06-1.44-.73-1.44-1.54v-1.33c0-.46.21-.9.57-1.2l10.33-9.2c.67-.55,1.67-.07,1.67.79l.28,9.97Z"/>
  <path class="cls-30" d="M132.17,129.79c-.4-.2-.92-.11-1.36.09-.17.07-.29.2-.53.12-.52-.16-1.72.08-1.75.32-.02.15.14.31.43.45.24.12.32.42.17.65-.13.2-.25.41-.36.64-.85,1.75-.8,3.3.29,3.62.44.13,2.56-.06,3.42-1.81.85-1.75.72-3.57-.31-4.07Z"/>
  <path class="cls-30" d="M116.81,129.79c.4-.2.92-.11,1.36.09.17.07.29.2.53.12.52-.16,1.72.08,1.75.32.02.15-.14.31-.43.45-.24.12-.32.42-.17.65.13.2.25.41.36.64.85,1.75.8,3.3-.29,3.62-.44.13-2.56-.06-3.42-1.81-.85-1.75-.72-3.57.31-4.07Z"/>
  <line class="cls-18" x1="124.49" y1="118.97" x2="124.49" y2="124.56"/>
  <path class="cls-26" d="M134.18,115.22c-1.89,2-4.17,3.77-5.88,5.88-.71.91-1.28,1.92-1.86,2.93"/>
  <path class="cls-26" d="M114.8,115.22c1.88,2,4.15,3.75,5.86,5.85.72.92,1.3,1.95,1.87,2.96"/>
  <path class="cls-30" d="M145.97,128.21c-.41-.17-.95-.42-1.27-.58-.57-.13-1.4-.07-1.9.25-.72.71-.21,3.29-2.01,2.78-.35-.08-.93-.23-1.27-.32-1.16.22-2.89.67-4.14,1.01,0,0-.23.07-.23.07-.32-.58-.63-1.15-.92-1.75.43.44.83.89,1.22,1.35l-.31-.07c1.38-.74,2.61-1.22,4.13-1.58.31-.1.92.1,1.26.18.28.1.91.2.6.21.26-.32.38-1.24.61-1.77.52-1.19,2.1-1.2,3.11-.71.38.29.75.6,1.11.92h0Z"/>
  <path class="cls-30" d="M106.04,125.85c0,.58.11,1.48.63,1.74l.83,2.15,3.99.59,1.81.62c.67.35.92-.56,1.38-1.16l.59-.76c.27-.35.67-.56,1.11-.6l1.06-.08c.81-.06,1.44-.73,1.44-1.54v-1.33c0-.46-.21-.9-.57-1.2l-10.33-9.2c-.67-.55-1.67-.07-1.67.79l-.28,9.97Z"/>
  <g>
    <g>
      <g id="_Mirror_Repeat_" data-name="&amp;lt;Mirror Repeat&amp;gt;">
        <g class="cls-43">
          <circle class="cls-3" cx="133.62" cy="122.95" r="1.61"/>
        </g>
      </g>
      <g id="_Mirror_Repeat_-2" data-name="&amp;lt;Mirror Repeat&amp;gt;">
        <g class="cls-40">
          <circle class="cls-3" cx="115.34" cy="122.95" r="1.61"/>
        </g>
      </g>
    </g>
    <circle class="cls-25" cx="133.62" cy="122.95" r="1.32"/>
    <circle class="cls-25" cx="115.36" cy="122.95" r="1.32"/>
  </g>
  <path class="cls-30" d="M103.01,128.21c.37-.31.73-.63,1.11-.92,1.01-.49,2.59-.49,3.11.71.24.52.35,1.45.61,1.77-.3,0,.32-.12.6-.21.34-.08.95-.28,1.26-.18,1.52.36,2.75.84,4.13,1.58,0,0-.32.09-.32.09.33-.47.67-.94,1.04-1.4-.21.61-.45,1.2-.7,1.78,0,0-.25-.07-.25-.07-1.25-.34-2.98-.79-4.14-1.01-.34.09-.92.24-1.27.32-1.8.51-1.29-2.07-2.01-2.78-.49-.32-1.33-.38-1.9-.25-.32.16-.87.4-1.27.58h0Z"/>
  <path class="cls-21" d="M129.34,129.15l-1.81-.6c-.9-.26-1.95-.41-3.02-.41-.01,0-.03,0-.04,0-1.07,0-2.12.15-3.02.41l-1.81.6"/>
  <path class="cls-21" d="M126.22,126.48l-.64-.48c-.32-.21-.7-.33-1.08-.33,0,0,0,0-.01,0-.38,0-.76.12-1.08.33l-.64.48"/>
  <path class="cls-24" d="M141.65,116.85l.23,9.53c0,.09.14.62-.4,1.33-.39.5.24,1.36-.27,1.63s-.98-.6-1.65-.3c-1.8.8-4.37.98-4.37.98-.29.06-.76-.52-.76-.52-.13-.34.06-.72.41-.81l2.38-.65c1.59-.43,2.76-1.77,2.96-3.4,0-.02,0-.04,0-.07.26-2.21-.92-4.06-1.53-5.71-.59-1.6,1.05-2.16,1.05-2.16,0,0,.79-.31,1.01-.37.46-.13.93.05.93.52Z"/>
  <path class="cls-24" d="M107.33,116.85l-.23,9.53c0,.09-.14.62.4,1.33.39.5-.24,1.36.27,1.63.51.28.98-.6,1.65-.3,1.8.8,4.37.98,4.37.98.29.06.59-.09.7-.37l.06-.15c.13-.34-.06-.72-.41-.81l-2.38-.65c-1.59-.43-2.76-1.77-2.96-3.4,0-.02,0-.04,0-.07-.26-2.21.92-4.06,1.53-5.71.59-1.6-1.05-2.16-1.05-2.16,0,0-.79-.31-1.01-.37-.46-.13-.93.05-.93.52Z"/>
  <path class="cls-7" d="M129.34,135.08c.28.08,1.96-.41,2.51-1.53s.47-2.2.21-2.88"/>
  <path class="cls-7" d="M119.64,135.08c-.28.08-1.96-.41-2.51-1.53-.55-1.12-.47-2.2-.21-2.88"/>
  <path class="cls-3" d="M121.04,129.54l1-.24c1.7-.41,3.47-.39,5.17.04l.77.2"/>
  <path class="cls-23" d="M129.85,106.47l-2.6-.26c-1.87-.19-3.76-.19-5.63,0l-2.6.26"/>
  <g>
    <g id="_Mirror_Repeat_-3" data-name="&amp;lt;Mirror Repeat&amp;gt;">
      <g class="cls-42">
        <path class="cls-3" d="M130.8,128.8l1.34-.19c.19-.03.38-.02.56.05,0,0,0,0,.01,0,.3.11.53.35.66.63l.31.66"/>
      </g>
    </g>
    <g id="_Mirror_Repeat_-4" data-name="&amp;lt;Mirror Repeat&amp;gt;">
      <g class="cls-41">
        <path class="cls-3" d="M118.13,128.8l-1.34-.19c-.19-.03-.38-.02-.56.05,0,0,0,0-.01,0-.3.11-.53.35-.66.63l-.31.66"/>
      </g>
    </g>
  </g>
  <path class="cls-30" d="M143.02,116.79c-.7-2.68-1.93-1.74-3.36-.37-2.97,2.91-5.7,6.29-9,8.97-1.32,1.4-3.17.56-4.32-.55.91.21,2.21.75,2.96.1.27-.31,1.03-1.25,1.31-1.59,2.42-2.95,4.85-5.9,8.06-8.17.87-.56,1.97-1.32,3.07-1.09,1.21.32,1.55,1.68,1.27,2.7h0Z"/>
  <path class="cls-30" d="M105.96,116.79c-.28-1.03.06-2.39,1.27-2.7,1.1-.23,2.2.53,3.07,1.09,3.21,2.26,5.63,5.22,8.06,8.17.28.34,1.03,1.28,1.31,1.59.75.65,2.05.11,2.96-.1-.79.69-1.6,1.26-2.74,1.32-1.08-.06-1.88-1.09-2.68-1.71-3.2-2.77-5.73-6.2-8.9-8.89-1.12-1.07-2.05-.22-2.35,1.24h0Z"/>
  <path class="cls-31" d="M131.19,128.32c.21-.03.41-.04.61-.04l.13-.1-1.69-2.14c-.35-.44-.48-.29-1.03-.38h-1.46l-1.4-.83h-.05c-.5.29-1.12.46-1.79.47v2.83s4.13.78,4.13.78l.95.35c.19-.44.81-.83,1.6-.95Z"/>
  <path class="cls-31" d="M117.79,128.32c-.21-.03-.41-.04-.61-.04l-.13-.1,1.69-2.14c.35-.44.48-.29,1.03-.38h1.46s1.4-.83,1.4-.83h.05c.5.29,1.12.46,1.79.47v2.83s-4.13.78-4.13.78l-.95.35c-.19-.44-.81-.83-1.6-.95Z"/>
  <g class="cls-37">
    <path class="cls-32" d="M134.71,137.31c-.22-.06-.39-.27-.53-.48-.74-1.08-1.05-5.38-1.92-6.32-.57-.61-1.49,1.99-2.18,1.57-.7,0-1.99-1.1-2.68-1.41-.66-.29-2.91-.42-2.91-.42v5.93c0-.1,0-.19,0-.26v1.59c0-.21,0-.46.01-.7v1.29s.39.15.58.44c.43.67,1.36,1.69,2.04,1.97.68.27,1.51.14,1.98-.49.16-.21.34-.27.56-.37.42-.19.91.44,1.14.89.92,1.78,1.39,3.15,2.23,4.68,1.79-2.63,4.47-5.46,5.17-8.71-.64.16-2.74,1.01-3.49.81Z"/>
    <path class="cls-32" d="M118.9,132.09c-.68.42-1.61-2.43-2.18-1.82-.87.94-1.19,5.49-1.92,6.57-.14.21-.31.42-.53.48-.75.2-2.42-.92-3.13-.56.7,3.25,3.01,5.83,4.8,8.46.85-1.52,1.32-2.9,2.23-4.68.23-.45.72-1.08,1.14-.89.22.1.41.16.56.37.47.63,1.3.77,1.98.49.68-.27,1.61-1.3,2.04-1.97.19-.3.58-.44.58-.44v-7.85s-2.24.13-2.89.42c-.69.31-1.98,1.41-2.68,1.41Z"/>
  </g>
  <path class="cls-33" d="M148.16,133.37c-.18.56-.44,1.13-.9,1.5-.43.34-.99.47-1.52.58-2.3.48-4.63.83-6.96,1.05-.17.02-.34.03-.51,0-.23-.04-3.71-1.16-3.45-1.65.29-.53.91-.75,1.49-.92,1.34-.41,2.68-.83,4.02-1.24.46-.14,1.03.25,1.45,0,.32-.19,2.08-2.94,3.67-2.81,1.82.16,2.75-1.96,3.3-1.7.92.44,0,2.08-.09,2.73-.1.83-.24,1.65-.5,2.45Z"/>
  <path class="cls-33" d="M100.58,133.25c.18.56.68,1.25,1.14,1.62.43.34.99.47,1.52.58,2.3.48,4.63.83,6.96,1.05.17.02.34.03.51,0,.23-.04,3.71-1.16,3.45-1.65-.29-.53-.91-.75-1.49-.92-1.34-.41-2.68-.83-4.02-1.24-.46-.14-1.03.25-1.45,0-.32-.19-2.08-2.94-3.67-2.81-1.82.16-2.75-1.96-3.3-1.7-.92.44,0,2.08.09,2.73.1.83,0,1.53.26,2.33Z"/>
  <line class="cls-3" x1="135.71" y1="131.87" x2="139.58" y2="131.04"/>
  <line class="cls-3" x1="113.27" y1="131.87" x2="109.4" y2="131.04"/>
  <path class="cls-29" d="M138.72,163.37s8.09-9.36,8.4-9.53,18.6-5.77,18.6-5.77l14.42-19.43,21.98-3.57,25.62,8.82,15.13,19.53-27.79-2.22-17.79,6.64h-18.15l-10.92,8.51-17.93,3.13-13.29,8.36,1.72-14.47Z"/>
  <path class="cls-34" d="M142.49,164.15s12.6-11.23,12.91-11.38c.31-.15,8.52-10.38,8.52-10.38l12.63-5.31,29.69-.97,28.81,5.57,7.82,11.32-27.15-1.8-18.44,7.15h-18.15l-11.37,7.54-17.48,3.58-11.42,9.77,3.62-15.1Z"/>
  <path class="cls-29" d="M110.26,163.37s-8.09-9.36-8.4-9.53c-.31-.16-18.6-5.77-18.6-5.77l-14.42-19.43-21.98-3.57-25.62,8.82-15.13,19.53,27.79-2.22,17.79,6.64h18.15s10.92,8.51,10.92,8.51l17.93,3.13,13.29,8.36-1.72-14.47Z"/>
  <path class="cls-34" d="M106.49,164.15s-12.6-11.23-12.91-11.38-8.52-10.38-8.52-10.38l-12.63-5.31-29.69-.97-28.81,5.57-7.82,11.32,27.15-1.8,18.44,7.15h18.15s11.37,7.54,11.37,7.54l17.48,3.58,11.42,9.77-3.62-15.1Z"/>
  <polygon class="cls-1" points="159.52 191.69 90.43 191.69 68.05 167.01 181.9 167.01 159.52 191.69"/>
  <g>
    <path class="cls-38" d="M91.54,172.25v5.65h7.09v-5.65h2.45v13.87h-2.45v-5.79h-7.09v5.79h-2.42v-13.87h2.42Z"/>
    <path class="cls-38" d="M105.8,186.12h-2.67l4.87-12.33c.51-1.29,1.46-1.79,2.92-1.79s2.38.49,2.88,1.79l4.69,12.33h-2.69l-4.21-11.16c-.12-.33-.35-.47-.68-.47s-.55.14-.7.47l-4.4,11.16Z"/>
    <path class="cls-38" d="M126.58,172.25c4.05,0,6.25,2.26,6.25,6.95s-2.18,6.92-6.25,6.92h-4.89c-.78,0-1.15-.37-1.15-1.13v-11.61c0-.76.37-1.13,1.15-1.13h4.89ZM122.96,183.45c0,.19.08.25.27.25h3.35c2.69,0,3.82-1.34,3.82-4.52s-1.13-4.5-3.82-4.5h-3.35c-.18,0-.27.06-.27.25v8.53Z"/>
    <path class="cls-38" d="M146.76,172.25v2.43h-6.95c-1.46,0-2.1.68-2.1,1.75,0,1.13.72,1.64,2.12,1.64h6.82v2.2h-6.88c-1.4,0-2.12.55-2.12,1.68s.68,1.75,2.1,1.75h7.03v2.42h-7.03c-3.29,0-4.62-1.62-4.62-3.78,0-1.58.72-2.65,1.99-3.18-1.29-.53-1.95-1.6-1.95-3.12,0-2.22,1.38-3.78,4.64-3.78h6.95Z"/>
    <path class="cls-38" d="M160.63,172.25v2.43h-7.11c-1.25,0-1.81.68-1.81,1.64,0,.84.43,1.64,2.05,1.64h3.25c3.78,0,4.66,2.1,4.66,4.09,0,2.34-1.25,4.07-4.42,4.07h-7.73v-2.42h7.81c1.32,0,1.91-.72,1.91-1.73,0-.9-.47-1.73-2.18-1.73h-3.23c-3.7,0-4.56-2.08-4.56-4.01,0-2.3,1.23-3.99,4.32-3.99h7.03Z"/>
  </g>
</svg>