<?xml version="1.0" encoding="UTF-8"?>
<svg xmlns="http://www.w3.org/2000/svg" xmlns:xlink="http://www.w3.org/1999/xlink" viewBox="0 0 512 512">
  <defs>
    <style>
      .cls-1 {
        stroke-width: 3.38px;
      }

      .cls-1, .cls-2, .cls-3, .cls-4, .cls-5, .cls-6, .cls-7, .cls-8, .cls-9, .cls-10, .cls-11, .cls-12, .cls-13, .cls-14, .cls-15, .cls-16, .cls-17 {
        stroke-miterlimit: 10;
      }

      .cls-1, .cls-2, .cls-3, .cls-5, .cls-6, .cls-7, .cls-18, .cls-9, .cls-12, .cls-13, .cls-15, .cls-17 {
        fill: none;
      }

      .cls-1, .cls-2, .cls-5, .cls-7, .cls-9, .cls-12, .cls-13, .cls-15, .cls-17 {
        stroke-linecap: round;
      }

      .cls-1, .cls-3, .cls-5, .cls-6, .cls-8, .cls-9, .cls-10, .cls-11, .cls-14, .cls-15, .cls-16, .cls-17 {
        stroke: #231f20;
      }

      .cls-2, .cls-9 {
        stroke-width: 2.48px;
      }

      .cls-2, .cls-12 {
        stroke: #fff;
      }

      .cls-19, .cls-4, .cls-20, .cls-21, .cls-22 {
        fill: #231f20;
      }

      .cls-3, .cls-17 {
        stroke-width: 3.52px;
      }

      .cls-4 {
        stroke: #00aeef;
      }

      .cls-4, .cls-10, .cls-12, .cls-15 {
        stroke-width: 3.31px;
      }

      .cls-5, .cls-6, .cls-7, .cls-13 {
        stroke-width: 1.65px;
      }

      .cls-23 {
        fill: #fff;
      }

      .cls-7 {
        stroke: #c9c9c3;
      }

      .cls-24, .cls-8 {
        fill: #414142;
      }

      .cls-8, .cls-14, .cls-16 {
        stroke-width: 4.5px;
      }

      .cls-25 {
        clip-path: url(#clippath-1);
      }

      .cls-20 {
        opacity: .55;
      }

      .cls-10 {
        opacity: .4;
      }

      .cls-10, .cls-16 {
        fill: #d6d6d7;
      }

      .cls-21 {
        opacity: .64;
      }

      .cls-26 {
        clip-path: url(#clippath-3);
      }

      .cls-11 {
        stroke-width: 1.76px;
      }

      .cls-11, .cls-27 {
        fill: #606161;
      }

      .cls-13 {
        stroke: #d6d6d7;
      }

      .cls-14 {
        fill: #00aeef;
      }

      .cls-22 {
        opacity: .57;
      }

      .cls-28 {
        clip-path: url(#clippath-2);
      }

      .cls-29 {
        clip-path: url(#clippath);
      }
    </style>
    <clipPath id="clippath">
      <rect class="cls-18" x="285.22" y="373.8" width="15.56" height="15.56"/>
    </clipPath>
    <clipPath id="clippath-1">
      <rect class="cls-18" x="211.14" y="373.8" width="15.56" height="15.56"/>
    </clipPath>
    <clipPath id="clippath-2">
      <rect class="cls-18" x="280.33" y="403.22" width="14.13" height="8"/>
    </clipPath>
    <clipPath id="clippath-3">
      <rect class="cls-18" x="217.33" y="403.22" width="14.13" height="8"/>
    </clipPath>
  </defs>
  <rect class="cls-23" width="512" height="512"/>
  <g id="Layer_1" data-name="Layer 1">
    <path class="cls-23" d="M300.19,157.78l-17.08-17.49c-6.41-6.56-13.03-13.34-17.45-21.66-6.25-11.75-7.63-25.96-4.22-43.43,1.01-5.19,2.33-10.3,3.6-15.25,1.96-7.62,3.8-14.81,4.58-22.03.33-3.06.38-12.3.29-20.11v-1.13c-.05-2.84,1.82-9.17,4.5-10.13l1.06-.38c2.04-.73,5.9,2.45,9.51,6.8.3.36.72.87,1.22,1.48.98,1.19,2.27,2.79,3.57,4.38,2.58,3.18,5.15,6.36,5.15,6.36,9.45,11.91,9.14,19.95,8.7,31.09l-.08,2.21c-.22,6.11-2.19,11.74-3.93,16.71-.57,1.64-1.11,3.19-1.59,4.71-5.29,17.09-3.01,35.65-.8,53.6l2.98,24.27ZM285.82,41.48c-.99,7.76-2.92,15.28-4.79,22.57-1.27,4.94-2.46,9.6-3.38,14.31-2.24,11.47-2.05,20.55.65,28.11-.19-10.4.71-21.02,3.94-31.45.56-1.81,1.18-3.58,1.77-5.28,1.48-4.24,2.88-8.24,3.01-11.85l.09-2.26c.26-6.63.41-10.27-1.28-14.14Z"/>
    <path class="cls-23" d="M205.5,115.07c-2.02,0-4.08-.62-5.98-1.83l-.46-.31c-7.59-5.59-11.43-18.05-12.1-24.73l-.02-.13c-.84-7.07-.63-13.83.64-20.07.48-2.36,1.1-4.53,1.7-6.64.56-1.96,1.09-3.82,1.45-5.63.72-3.48.74-7.28.08-11.06-.27-1.58-.6-2.97-.89-4.21-.66-2.79-2.41-10.2,4.49-13.1l1.69-.71,1.83.07c4.21.16,6.82,2.8,8.72,4.73.37.37.77.78,1.23,1.22l.24.24c2.07,2.15,3.84,4.17,5.42,6.18,6.4,7.75,12.36,21.47,10.41,33.42-.77,5.02-2.22,9.67-3.63,14.16-1.36,4.35-2.64,8.45-3.17,12.47l-.14.78c-.04.2-.14.82-.2,1.28-.57,3.88-1.52,10.37-7.23,12.98-1.3.59-2.69.89-4.09.89ZM206.6,60.57c-.43,1.84-.93,3.6-1.42,5.32-.54,1.89-1.05,3.68-1.4,5.4-.9,4.41-1.05,9.28-.46,14.47.4-1.35.82-2.69,1.24-4.02,1.28-4.1,2.49-7.97,3.07-11.76l.02-.1c.43-2.61.01-5.93-1.04-9.31Z"/>
    <path class="cls-23" d="M349.31,385.06c-3.79,0-7.41-1.28-10.6-3.75-4.74-3.69-8.17-10.04-8.95-16.59-.29-2.39-.34-4.68-.39-6.88-.09-3.81-.17-7.09-1.4-9.27-2.5-4.4-10.74-6.12-17.63-7.12-22.79-3.31-46.01-5.52-69.01-6.55-1.15-.05-3.28-.15-3.96.15-.22.09-.8.48-1.23.77-.78.52-1.74,1.16-2.9,1.74-5.96,2.98-12.06,2.2-16.97,1.57-1.13-.15-2.2-.28-3.19-.37-9.51-.79-19.51,3.98-24.34,11.61-.2.32-.39.63-.58.95-1.1,1.82-2.61,4.3-5.15,6.34-4.12,3.31-9.8,4.57-15.6,3.43-17.96-3.51-18.18-19.31-18.32-28.76-.06-4.3-.13-9.17-1.55-11.02-1.35-1.75-3.6-3.45-5.98-5.25-4.29-3.24-9.64-7.28-12.11-13.86l-3.86-10.28,20.96-1.66c-3.46-10.05-3.26-22.07.85-34.25,2.98-8.85,7.44-16.88,11.75-24.64,2.5-4.5,4.86-8.76,6.94-13.14,6.18-13.02,9.93-27.54,13.56-41.57,1.43-5.56,2.91-11.32,2.17-16.29-.37-2.46-1.34-5.16-2.37-8.03-1.84-5.14-3.93-10.96-3.34-17.59l.64-7.19,7.21-.33c8.28-.37,16.75,3.62,23.26,10.96,3.35,3.78,5.78,7.83,8.14,11.74,1.01,1.68,1.96,3.26,2.96,4.78.91,1.38,1.89,2.76,2.93,4.24h0c-.1-5,.33-9.94.83-14.71,1.47-14.05,3.75-29.6,9-44.49,3.66-10.39,9.34-19.96,16.52-28.32l14.34-16.7-5.56,27.03c-.57,2.8-1.29,5.56-2.04,8.31-3.46,12.78-2.96,26.49,1.48,38.99,3.2,9.01,8.33,17.4,13.77,26.27,3.92,6.4,7.98,13.03,11.35,20.05,8.65,18,12.44,37.97,10.95,57.73-.31,4.02-.82,7.97-1.33,11.8-.75,5.75-1.47,11.18-1.46,16.53,0,6.42,1.23,15.32,7.01,21.24,1.69,1.73,2.72,2.05,3.09,2.11.91.14,2.59-.79,3.48-2.24,1.15-1.88,1.66-4.59,1.66-8.79,0-8.7-1.8-17.58-3.69-26.98-3.16-15.69-6.42-31.91-1.24-48.31,1.41-4.46,3.33-8.53,5.2-12.46.8-1.69,1.56-3.29,2.27-4.9,11.23-25.57,9.46-56.55-4.63-80.86l-4.5-7.77,8.12-3.84c3.92-1.85,8.39-1.46,13.3,1.18,23.66,12.8,38.53,39.47,37.03,66.39-.68,12.17-4.35,23.55-7.89,34.56-2.84,8.82-5.53,17.15-6.68,25.63-.07.49-.13.98-.18,1.47l17.08,10.14c10.21,6.06,20.45,12.97,23.59,24.83,3.28,12.42-3.2,23.7-8.41,32.77-.62,1.07-1.23,2.14-1.82,3.19-8.03,14.38-12.43,30.55-12.71,46.77-.03,1.79.14,3,.33,3.73.92-.6,2.46-1.93,4.31-4.54l21.82-27.87-7.13,34.9c-2.65,9.4-6.02,18.73-10.03,27.74-1.53,3.45-6.2,13.98-16.93,15.39-.75.1-1.49.15-2.23.15ZM344.98,347.44c.75,3.46.83,6.86.91,10.01.05,1.9.09,3.7.28,5.31.26,2.14,1.41,4.51,2.69,5.51.37.29.49.27.54.26.06,0,1.55-.26,3.97-5.71,1.01-2.26,1.97-4.54,2.88-6.84-1.3-.22-2.38-.57-3.19-.9h0c-2.42-.99-5.83-3.12-8.08-7.65ZM155.66,306.14c1.75,1.48,3.47,3.14,4.97,5.09,4.78,6.2,4.89,13.99,4.99,20.87.16,11.33,1.24,12.05,4.96,12.77,1.11.22,1.93,0,2.1-.11.27-.24.92-1.31,1.36-2.03.24-.4.49-.81.74-1.2,8.1-12.82,24.05-20.56,39.69-19.25,1.35.11,2.65.28,3.91.44,2.96.38,6.02.77,7.44.06.25-.13.72-.44,1.17-.74,1-.66,2.24-1.49,3.81-2.17,4.18-1.81,8.45-1.62,11.27-1.49,23.55,1.06,47.32,3.31,70.65,6.7,11.27,1.64,23.61,4.74,29.62,15.31.32.56.6,1.12.87,1.68-.39-1.97-.6-4.23-.55-6.8.33-18.93,5.45-37.79,14.81-54.54.62-1.11,1.27-2.23,1.92-3.37,3.98-6.93,7.76-13.5,7-19.1-1.77,4.62-5.33,8.68-9.83,11.07-4.93,2.61-10.48,2.89-15.23.76-7.13-3.2-9.96-10.49-11.03-13.24-5.23-13.6-6.97-28.35-5.04-42.69,1.35-9.94,4.39-19.37,7.33-28.49,3.38-10.47,6.56-20.36,7.12-30.4.76-13.66-3.97-27.23-12.5-37.69,6.22,23.1,4.57,47.95-5.19,70.17-.8,1.83-1.65,3.6-2.46,5.32-1.7,3.59-3.3,6.98-4.37,10.37-3.9,12.34-1.19,25.81,1.68,40.07,1.97,9.78,4,19.89,4.01,30.23,0,5-.46,11.49-4.08,17.41-4.36,7.14-12.43,11.15-20.11,9.97-4.44-.69-8.61-3.01-12.41-6.91-7.64-7.83-11.68-19.16-11.69-32.76,0-6.44.81-12.67,1.6-18.69.49-3.77.96-7.33,1.23-10.9,1.27-16.87-1.96-33.93-9.36-49.32-3.01-6.26-6.67-12.24-10.54-18.57-5.64-9.21-11.47-18.73-15.25-29.37-.09-.25-.18-.5-.26-.75-.58,4.05-1.06,8.1-1.48,12.11-.8,7.61-1.36,15,.42,21.63,1.07,3.99,3.07,7.98,5.19,12.21.96,1.92,1.96,3.91,2.89,5.96,6.32,13.82,9.29,29.09,8.56,44.13-.25,5.25-1.02,12.05-4.82,18.13-4.58,7.33-12.66,11.56-20.57,10.77-9.02-.89-16.76-8.19-19.7-18.6-3.36-11.89-.86-23.44,1.56-34.61,2.26-10.41,4.39-20.24.97-28.4-1.25-2.98-3.34-5.95-5.56-9.1-.97-1.38-1.98-2.81-2.95-4.29-1.18-1.8-2.26-3.6-3.31-5.34-1.54-2.56-3.01-5.01-4.63-7.18.67,2.11,1.26,4.34,1.61,6.68,1.23,8.29-.76,16.03-2.52,22.86-3.82,14.8-7.77,30.09-14.64,44.54-2.31,4.85-4.91,9.54-7.42,14.07-4.13,7.45-8.04,14.48-10.54,21.91-4.13,12.25-2.95,23.75,3.18,30.75l10.84,12.38-21.43,1.7ZM341.02,227.37c.2,8.01,1.77,16,4.68,23.54,1.36,3.51,2.21,4.04,2.37,4.11.68.01,2.72-1.51,3-3.1.61-3.49-1.5-7.97-4.11-13.03l-5.94-11.53ZM231.2,190.97c-.42,6.25-1.75,12.37-2.99,18.11-2.08,9.61-4.05,18.7-1.81,26.62.86,3.05,3.05,6.42,5.42,6.65,1.59.16,3.75-1.2,4.94-3.09,1.77-2.82,2.17-6.91,2.32-10.15.6-12.43-1.85-25.04-7.09-36.47-.26-.56-.52-1.11-.79-1.67Z"/>
    <g>
      <path class="cls-24" d="M256,494.31l-10.53-10.53-4.47,4.47-18.98-22.3c-3.29-3.86-7.96-6.29-13.01-6.75l-13.22.33c-10.52.26-20.81-3.06-29.2-9.41l-10.91-7.38,4.03,9.64c.07.28-.26.47-.45.25l-16.02-13.09c-4.28-4.77-7.63-10.31-9.86-16.32l-1.19-3.2c-1.72-4.64-1.88-9.7-.47-14.44l6.05-20.24,1.83-5.8c1.77-5.6,2.05-11.57.81-17.31l-4.5-20.76c-2.54-11.75-3.15-23.83-1.79-35.77l1.44-25.8c.64-11.55,7.72-46.96,13.07-61.59,5.73-15.7,13.34-32.02,21.91-46.36h0c2.08-3.47,6.83-4.13,9.77-1.35l1.78,1.68c6.32,5.97,11.51,13.03,15.26,20.87,5.23,10.96,9.3,23.29,12.83,33.76l3.45,10.24c4.67,13.86,7.3,28.33,7.79,42.95l.38,20.58c.02.89.87,1.52,1.73,1.27l16.09-4.69c10.68-3.11,22.03-3.11,32.71,0l16.09,4.69c.85.25,1.71-.38,1.73-1.27l.38-20.58c.49-14.62,3.11-29.09,7.79-42.95l3.45-10.24c3.53-10.47,7.6-22.8,12.83-33.76,3.74-7.84,8.94-14.9,15.26-20.87l1.78-1.68c2.94-2.78,7.7-2.12,9.77,1.35h0c8.57,14.34,16.18,30.67,21.91,46.36,5.34,14.63,12.42,50.04,13.07,61.59l1.44,25.8c1.36,11.94.75,24.03-1.79,35.77l-4.5,20.76c-1.24,5.74-.97,11.71.81,17.31l1.83,5.8,6.05,20.24c1.42,4.74,1.25,9.81-.47,14.44l-1.19,3.2c-2.23,6.01-5.57,11.55-9.86,16.32l-16.02,13.09c-.18.21-.52.02-.45-.25l3.19-9.64-10.08,7.38c-8.39,6.35-18.68,9.67-29.2,9.41l-13.22-.33c-5.05.46-9.72,2.89-13.01,6.75l-18.98,22.3-4.47-4.47-10.53,10.53Z"/>
      <path class="cls-23" d="M256,507.74l-10.53-10.53-5.03,5.03-25.65-30.14c-1.59-1.87-3.77-3.06-6.18-3.39l-12.58.31c-10.93.29-21.81-2.72-31.06-8.5-.31.21-.64.41-.98.58-3.64,1.91-7.97,1.34-10.97-1.31l-16.36-13.36-.49-.55c-5.1-5.69-9.04-12.2-11.69-19.37l-1.19-3.2c-2.42-6.53-2.65-13.8-.66-20.47l6.09-20.38,1.83-5.8c1.27-4.02,1.47-8.31.58-12.43l-4.49-20.76c-2.75-12.7-3.41-25.67-1.98-38.58l1.42-25.54c.72-12.88,8.02-48.97,13.63-64.32,6.16-16.87,14.01-33.46,22.68-47.98,2.48-4.14,6.64-6.9,11.42-7.56,4.78-.66,9.53.86,13.04,4.17l1.78,1.69c7.25,6.85,13.07,14.82,17.31,23.68,5.22,10.92,9.21,22.77,12.72,33.22l3.99,11.84c4.97,14.75,7.76,30.11,8.28,45.67v.14s.19,9.92.19,9.92l5.86-1.71c12.44-3.62,25.59-3.63,38.03,0l5.86,1.71.19-10.06c.52-15.56,3.31-30.92,8.28-45.67l3.99-11.83c3.52-10.46,7.51-22.31,12.73-33.24,4.23-8.86,10.05-16.83,17.31-23.68l1.79-1.69c3.51-3.31,8.26-4.83,13.04-4.17,4.78.66,8.94,3.42,11.42,7.56,8.68,14.52,16.52,31.11,22.68,47.98,5.61,15.36,12.91,51.45,13.63,64.32l1.42,25.54c1.44,12.91.77,25.89-1.98,38.58l-4.49,20.76c-.89,4.12-.69,8.42.58,12.43l1.88,5.94,6.05,20.24c1.99,6.67,1.76,13.94-.66,20.46l-1.19,3.2c-2.66,7.17-6.59,13.68-11.69,19.37l-.49.55-16.35,13.36c-2.99,2.64-7.31,3.21-10.94,1.32-.35-.18-.68-.38-1-.6-9.26,5.78-20.1,8.8-31.07,8.5l-12.58-.31c-2.41.33-4.59,1.53-6.18,3.39l-25.65,30.14-5.03-5.03-10.53,10.53ZM245.47,470.33l10.53,10.53,10.53-10.53,3.9,3.9,12.3-14.45c4.93-5.79,11.81-9.36,19.38-10.05l.55-.05,13.78.34c8.36.17,16.59-2.45,23.23-7.48l.12-.09,29.58-21.68c.11-.29.22-.57.33-.86l1.19-3.2c1-2.69,1.09-5.68.27-8.42l-6.03-20.16-1.81-5.73c-2.27-7.16-2.62-14.83-1.03-22.18l4.5-20.76c2.33-10.76,2.88-21.76,1.63-32.69l-.05-.55-1.44-25.8c-.56-10.1-7.38-44.84-12.5-58.86-5.2-14.22-11.93-28.74-19.13-41.31-5.03,4.99-9.09,10.69-12.1,16.98-4.72,9.89-8.52,21.17-11.87,31.11l-3.99,11.83c-4.37,12.97-6.83,26.48-7.29,40.16l-.38,20.51c-.06,3.36-1.72,6.55-4.42,8.54-2.71,1.99-6.25,2.62-9.47,1.67l-16.09-4.69c-8.96-2.61-18.43-2.61-27.39,0l-16.09,4.69c-3.22.94-6.76.31-9.47-1.67-2.71-1.99-4.36-5.19-4.42-8.54l-.38-20.51c-.47-13.68-2.92-27.19-7.29-40.16l-3.99-11.85c-3.35-9.94-7.14-21.21-11.86-31.09-3-6.29-7.07-11.99-12.09-16.98-7.2,12.57-13.93,27.09-19.13,41.31-5.12,14.01-11.94,48.75-12.51,58.85l-1.48,26.35c-1.24,10.93-.69,21.93,1.63,32.69l4.49,20.76c1.59,7.34,1.23,15.01-1.03,22.18l-1.81,5.73-6.03,20.16c-.82,2.74-.72,5.73.27,8.42l1.19,3.2c.4,1.09.85,2.15,1.34,3.2l28.69,19.43c6.65,5.03,14.9,7.67,23.23,7.48l13.78-.34.55.05c7.57.7,14.45,4.27,19.38,10.06l12.3,14.45,3.9-3.9Z"/>
    </g>
    <path class="cls-8" d="M256,494.31l-10.53-10.53-4.47,4.47-18.98-22.3c-3.29-3.86-7.96-6.29-13.01-6.75l-13.22.33c-10.52.26-20.81-3.06-29.2-9.41l-10.91-7.38,4.03,9.64c.07.28-.26.47-.45.25l-16.02-13.09c-4.28-4.77-7.63-10.31-9.86-16.32l-1.19-3.2c-1.72-4.64-1.88-9.7-.47-14.44l6.05-20.24,1.83-5.8c1.77-5.6,2.05-11.57.81-17.31l-4.5-20.76c-2.54-11.75-3.15-23.83-1.79-35.77l1.44-25.8c.64-11.55,7.72-46.96,13.07-61.59,5.73-15.7,13.34-32.02,21.91-46.36h0c2.08-3.47,6.83-4.13,9.77-1.35l1.78,1.68c6.32,5.97,11.51,13.03,15.26,20.87,5.23,10.96,9.3,23.29,12.83,33.76l3.45,10.24c4.67,13.86,7.3,28.33,7.79,42.95l.38,20.58c.02.89.87,1.52,1.73,1.27l16.09-4.69c10.68-3.11,22.03-3.11,32.71,0l16.09,4.69c.85.25,1.71-.38,1.73-1.27l.38-20.58c.49-14.62,3.11-29.09,7.79-42.95l3.45-10.24c3.53-10.47,7.6-22.8,12.83-33.76,3.74-7.84,8.94-14.9,15.26-20.87l1.78-1.68c2.94-2.78,7.7-2.12,9.77,1.35h0c8.57,14.34,16.18,30.67,21.91,46.36,5.34,14.63,12.42,50.04,13.07,61.59l1.44,25.8c1.36,11.94.75,24.03-1.79,35.77l-4.5,20.76c-1.24,5.74-.97,11.71.81,17.31l1.83,5.8,6.05,20.24c1.42,4.74,1.25,9.81-.47,14.44l-1.19,3.2c-2.23,6.01-5.57,11.55-9.86,16.32l-16.02,13.09c-.18.21-.52.02-.45-.25l3.19-9.64-10.08,7.38c-8.39,6.35-18.68,9.67-29.2,9.41l-13.22-.33c-5.05.46-9.72,2.89-13.01,6.75l-18.98,22.3-4.47-4.47-10.53,10.53Z"/>
    <path class="cls-6" d="M323.74,322.72l-8.57-11.79c-4.21-5.78-7.35-12.27-9.3-19.15l-4-14.13c-1.15-4.07-1.62-8.39-1.65-12.64-.04-4.84,1.05-12.62,2.32-17.29l6.56-24.26c.71-2.64,1.54-5.24,2.49-7.8,2.02-5.48,5.65-15.15,7.6-19.25,2.03-4.27,4.89-8.74,7.69-12.55,2.32-3.16,5.55-6.39,5.55-6.39,3.24-3.84,6.03-2.39,7.6.25l11.35,22.56c4.66,8.89,8.26,18.3,10.73,28.04l6.42,29.52c1.65,7.59,2.84,15.28,3.54,23.02l1.05,23.16c.5,11.03-1.24,22.04-5.11,32.38l-2.55,6.81c-2.08,5.56-5.2,10.68-9.19,15.07l-8.22,9.05"/>
    <path class="cls-27" d="M210.55,264.99c-.04,4.54-.58,8.68-1.61,12.32l-4,14.13c-1.91,6.76-4.97,13.07-9.11,18.76l-8.58,11.79.19.14c-7.58,6.64-13.05,15.79-17.03,28.38l-6.04,15.41-7.71-8.5c-3.9-4.3-6.91-9.24-8.95-14.68l-2.55-6.81c-3.83-10.23-5.53-20.96-5.03-31.88l1.05-23.11c.7-7.66,1.88-15.35,3.52-22.87l6.41-29.48c2.44-9.63,6.02-18.96,10.63-27.78l11.34-22.52c.42-.71,1.28-1.86,2.43-1.95,1.18-.09,2.36.98,3.13,1.9l.07.08s3.2,3.19,5.44,6.24c2.2,3,5.3,7.59,7.57,12.35,1.93,4.07,5.56,13.74,7.55,19.15.93,2.51,1.75,5.1,2.45,7.69l6.56,24.26c1.29,4.77,2.31,12.38,2.27,16.96Z"/>
    <path class="cls-17" d="M294.32,304.33l25.42,15.61c5.96,4.16,10.43,9.34,13.9,15.24,2.83,4.81,4.99,10.11,6.78,15.75l13.45,34.33,20.15,26.35c.88,1.15.96,2.72.2,3.95l-6.69,7.45,1.01-.22c1.28-.28,2.2,1.21,1.38,2.23l-7.38,9.18"/>
    <path class="cls-3" d="M190.02,322.72l8.57-11.79c4.21-5.78,7.35-12.27,9.3-19.15l4-14.13c1.15-4.07,1.62-8.39,1.65-12.64.04-4.84-1.05-12.62-2.32-17.29l-6.56-24.26c-.71-2.64-1.54-5.24-2.49-7.8-2.02-5.48-5.65-15.15-7.6-19.25-2.03-4.27-4.89-8.74-7.69-12.55-2.32-3.16-5.55-6.39-5.55-6.39-3.24-3.84-6.03-2.39-7.6.25l-11.35,22.56c-4.66,8.89-8.26,18.3-10.73,28.04l-6.42,29.52c-1.65,7.59-2.84,15.28-3.54,23.02l-1.05,23.16c-.5,11.03,1.24,22.04,5.11,32.38l2.55,6.81c2.08,5.56,5.2,10.68,9.19,15.07l8.22,9.05"/>
    <path class="cls-17" d="M217.68,304.33l-25.42,15.61c-10.82,7.56-16.7,18.44-20.67,30.99l-13.45,34.33-20.15,26.35c-.88,1.15-.96,2.72-.2,3.95l6.69,7.45-1.01-.22c-1.28-.28-2.2,1.21-1.38,2.23l7.38,9.18"/>
    <path class="cls-11" d="M366.83,335.94l-2.55,6.81c-2.04,5.44-5.05,10.38-8.96,14.68l-7.71,8.49-6.03-15.4c-1.97-6.21-4.21-11.44-6.88-15.97-2.86-4.86-6.2-8.95-10.16-12.42l.18-.13-8.57-11.79c-4.13-5.69-7.2-12-9.11-18.76l-4-14.13c-1.02-3.64-1.57-7.78-1.6-12.32-.04-4.58.98-12.18,2.27-16.96l6.55-24.26c.7-2.59,1.53-5.18,2.45-7.69,1.99-5.4,5.62-15.08,7.55-19.15,2.26-4.77,5.37-9.35,7.57-12.35,2.24-3.05,5.4-6.21,5.43-6.24l.07-.08c.78-.92,1.94-2,3.12-1.9,1.15.09,2.02,1.24,2.44,1.95l11.35,22.53c4.6,8.8,8.17,18.14,10.61,27.72l6.42,29.52c1.64,7.52,2.82,15.21,3.51,22.82l1.06,23.16c.5,10.92-1.2,21.65-5.03,31.88Z"/>
    <path class="cls-1" d="M371.56,291.2l-9.12-12.16c-8.93-11.9-23.94-17.55-38.5-14.48l-22.29,4.69"/>
    <path class="cls-1" d="M311.28,220.35l12.77-4.17c12.66-4.13,35.51,6.63,35.51,6.63"/>
    <path class="cls-1" d="M146.58,338.57l6.48-8.97c6.43-8.17,15.9-13.37,26.25-14.4l15.56-1.56"/>
    <path class="cls-1" d="M141.29,290.07l8.27-11.03c8.93-11.9,23.94-17.55,38.5-14.48l22.29,4.69"/>
    <path class="cls-1" d="M200.72,220.35l-12.77-4.17c-12.66-4.13-25.32-2.39-35.46,6.24"/>
    <polyline class="cls-9" points="262.51 480.92 270.6 471.13 272.07 476.1 279.86 465.17"/>
    <polyline class="cls-9" points="249.49 480.92 241.4 471.13 239.93 476.1 232.14 465.17"/>
    <path class="cls-14" d="M278.16,17.57c.03,2.53.17,16.4-.34,21.1-1.38,12.81-5.8,25.3-8.28,38.01-2.48,12.71-2.91,26.11,3.4,37.99,3.84,7.22,9.99,13.54,16.07,19.77-2.34-19.03-4.64-38.49,1.11-57.08,1.98-6.4,4.91-12.71,5.15-19.29.43-11.88,1.24-17.71-6.79-27.82,0,0-10.33-12.79-10.33-12.68Z"/>
    <path class="cls-14" d="M195.17,87.26c.59,6.33,4.22,15.65,8.78,19.01,4.2,2.68,4.38-5.48,5-8.21,1.2-9.16,5.44-17.73,6.83-26.85,1.41-8.55-2.78-19.85-8.68-26.95-1.66-2.13-3.41-4.05-4.93-5.63-2.17-2.07-3.31-3.61-4.55-3.66-.73.31.54,3.57,1.34,8.27.8,4.61.82,9.51-.12,14.09-.84,4.21-2.31,8.15-3.16,12.3-1.15,5.65-1.24,11.49-.53,17.45l.02.17Z"/>
    <path class="cls-14" d="M356.18,347.43c-4.48-1.83-5.35-7.4-5.27-12,.31-17.59,5.07-35.1,13.76-50.66,5.26-9.4,12.18-19.49,9.45-29.82-2.4-9.06-11.45-14.87-19.82-19.84,2.96,5.74,6,11.95,4.9,18.25-1.11,6.31-8.42,11.94-14.52,9.21-3.52-1.58-5.36-5.23-6.7-8.68-4.73-12.28-6.31-25.63-4.55-38.59,2.74-20.25,13.38-39.16,14.51-59.54,1.29-23.22-11.33-47.09-32.69-58.65-1.8-.97-4.01-1.87-5.86-.99,15.5,26.75,17.41,60.17,5.04,88.33-2.42,5.5-5.35,10.82-7.15,16.53-7.43,23.49,5.29,48.28,5.31,72.79,0,4.51-.48,9.18-2.87,13.09-2.38,3.9-7.08,6.83-11.79,6.11-3.05-.47-5.65-2.36-7.74-4.5-6.96-7.13-9.35-17.31-9.35-27.01,0-9.7,2.07-19.29,2.81-28.96,1.38-18.27-2.14-36.86-10.16-53.53-7.72-16.08-19.5-30.39-25.45-47.13-5.45-15.36-5.63-32.36-.5-47.82-11.25,18.39-15.03,39.95-17.25,61.09-.86,8.21-1.5,16.63.65,24.63,1.83,6.82,5.59,13.01,8.54,19.46,5.78,12.64,8.49,26.53,7.83,40.3-.23,4.89-.93,9.92-3.57,14.14-2.64,4.21-7.59,7.45-12.75,6.93-6.47-.64-10.88-6.69-12.56-12.63-5.9-20.87,10.62-43.86,2.21-63.96-2.23-5.31-4.28-9.87-7.47-14.73-3.43-5.22-7.96-10.88-12.13-15.58-4.17-4.71-10.2-8.49-16.69-8.19-.72,8.11,4.45,15.62,5.65,23.68.98,6.54-.69,13.16-2.35,19.58-3.78,14.62-7.58,29.33-14.1,43.05-5.89,12.4-13.96,23.92-18.33,36.88-4.37,12.96-4.38,28.35,4.79,38.83-7.61.6-15.23,1.21-22.84,1.81,2.78,7.4,12.01,10.62,16.9,16.97,7.91,10.26-3.8,33.05,14.91,36.71,3.05.59,6.46.15,8.83-1.76,1.74-1.4,2.75-3.41,3.93-5.26,6.47-10.25,19.43-16.49,32.01-15.44,5.32.45,11.03,2.02,15.75-.35,1.59-.8,2.93-2.01,4.57-2.72,2.35-1.02,5.03-.93,7.61-.82,23.38,1.05,46.7,3.26,69.83,6.63,9.05,1.31,19.3,3.59,23.63,11.21,3.27,5.76,2.04,12.76,2.82,19.25.78,6.5,5.64,13.87,12.5,12.98,5.3-.69,8.39-5.89,10.45-10.55,3.85-8.65,7.07-17.55,9.63-26.62-3.36,4.74-8.83,10.13-14.37,7.88Z"/>
    <path class="cls-4" d="M351.11,283.04c1.34,2.5-1.33,6.01-2.66,8.45-4.02,6.57-9.07,12.78-12.17,19.73-1.76,3.8-2.87,7.88-4.32,11.79-5.23,15.18-17.79,11.92-29.23,5.59-7.43-3.83-15.06-7.79-23.12-9.56-4.78-1.08-9.67-1.46-14.57-1.56-11.77-.23-23.75-.16-35.03,3.13-4.02,1.11-7.98,2.47-12.02,3.5-5.63,1.47-11.49,2.04-16.82,3.84-5.2,1.52-10.9,4.87-16.29,2.74-3.81-1.44-7.66-5.99-11.19-9.46-1.92-2.24-7.24-6.09-1.97-7.66,10.96-3.37,10.44-9.57,7.41-19.29-1.96-6.36-2.94-12.99-2.74-19.65.33-13.99,5.16-27.41,11.23-39.85,1.53-3.59,9.27-17.04,11.03-6.86.45,3.32.13,6.93.24,10.7.5,10.18,3.04,21.52,11.13,28.37,7.3,5.98,18.71,6.45,27.33,2.54,5.98-2.69,10.4-7.79,13.79-13.3,3.22-5.21,5.9-10.86,8.45-16.41,1.58-3.55,4.83-10.45,7.08-4.67,2.87,7.85-.32,19.12-.46,27.3,0,6.78,1.55,14.41,3.72,21.05,3.57,11.07,15.62,19.54,27.14,20.12,11.35.2,24.74-4.93,27.51-16.69,1.61-6.29,1.17-13.08,1.09-19.52.03-4.32-.25-7.82,1.41-8.21.8.08,1.46.86,2,1.5,2.74,3.34,6.11,10.82,9.64,14.8,1.96,2.37,4.61,3.96,7.42,4.9,1.8.68,3.85,1.18,4.91,2.57l.04.06Z"/>
    <path class="cls-16" d="M254.49,444.28l-10.13,9.56c-.98.92-2.46,1.06-3.59.33l-5.44-3.5c-1.5-.96-3.5-.38-4.24,1.23l-9.09,19.72c-.62,1.34-2.5,1.42-3.22.12l-18.05-32.36c-.43-.77-1.19-1.31-2.06-1.46l-29.22-5.07c-6.32-1.1-11.21-6.16-12.09-12.51l-1.92-13.89c-.52-3.76,1.08-7.51,4.16-9.73l5.65-4.07c.56-.41.97-1,1.13-1.68l7.61-31.02c.52-2.12.66-4.32.42-6.5l-.87-7.78c-.29-2.58.14-5.2,1.24-7.55l.97-2.08c1.45-3.11,4.09-5.52,7.32-6.68l6.48-2.32c.13-.05.25-.1.37-.16l17.56-9.18c6.55-3.42,13.48-6.05,20.66-7.83l9.39-2.29c11.87-2.89,24.25-2.89,36.12,0l9.39,2.29c7.17,1.78,14.11,4.4,20.66,7.83l17.56,9.18c.12.06.24.12.37.16l6.48,2.32c3.23,1.16,5.87,3.56,7.32,6.68l.97,2.08c1.1,2.36,1.53,4.97,1.24,7.55l-.87,7.78c-.24,2.17-.1,4.37.42,6.5l7.61,31.02c.17.68.57,1.27,1.13,1.68l5.65,4.07c3.08,2.22,4.69,5.96,4.16,9.73l-1.92,13.89c-.88,6.36-5.77,11.42-12.09,12.51l-29.22,5.07c-.87.15-1.63.69-2.06,1.46l-18.05,32.36c-.72,1.29-2.6,1.22-3.22-.12l-9.09-19.72c-.74-1.62-2.75-2.2-4.24-1.23l-5.44,3.5c-1.13.73-2.62.59-3.59-.33l-10.13-9.56c-.61-.58-1.57-.58-2.18,0Z"/>
    <path class="cls-19" d="M330.74,393.33c0,2.37-.45,5.99-2.56,7.06l-3.38,8.72-16.18,2.39-7.31,2.53c-2.7,1.43-3.73-2.29-5.6-4.7l-2.39-3.08c-1.09-1.41-2.73-2.28-4.5-2.41l-4.31-.32c-3.28-.24-5.82-2.97-5.82-6.26v-5.38c0-1.88.84-3.66,2.3-4.85l41.83-37.28c2.71-2.22,6.77-.29,6.77,3.21l1.14,40.38Z"/>
    <path class="cls-19" d="M287.13,409.31c-1.63-.8-3.73-.43-5.52.35-.68.3-1.19.79-2.15.5-2.1-.64-6.95.32-7.08,1.28-.08.6.59,1.25,1.73,1.8.97.48,1.29,1.72.69,2.62-.53.81-1.02,1.67-1.47,2.58-3.46,7.08-3.24,13.37,1.19,14.68,1.79.53,10.38-.24,13.84-7.32,3.46-7.08,2.9-14.46-1.25-16.5Z"/>
    <path class="cls-19" d="M224.87,409.31c1.63-.8,3.73-.43,5.52.35.68.3,1.19.79,2.15.5,2.1-.64,6.95.32,7.08,1.28.08.6-.59,1.25-1.73,1.8-.97.48-1.29,1.72-.69,2.62.53.81,1.02,1.67,1.47,2.58,3.46,7.08,3.24,13.37-1.19,14.68-1.79.53-10.38-.24-13.84-7.32-3.46-7.08-2.9-14.46,1.25-16.5Z"/>
    <line class="cls-15" x1="256" y1="365.47" x2="256" y2="388.12"/>
    <path class="cls-1" d="M295.28,350.28c-7.66,8.11-16.91,15.28-23.83,23.84-2.87,3.7-5.21,7.8-7.52,11.85"/>
    <path class="cls-1" d="M216.72,350.28c7.61,8.1,16.83,15.21,23.76,23.68,2.92,3.73,5.28,7.89,7.59,12.01"/>
    <path class="cls-19" d="M343.01,402.92c-1.78-.74-3.52-1.54-5.24-2.38l.08.04c-.44-.15-.88-.24-1.27-.25-2.27.09-5.34-.08-6.86,1.75-1.51,2.31-1.1,6.01-2.7,8.9-.63,1.35-2.48,2.54-4.1,2.09-.62-.13-2.4-.58-3.04-.74-.59-.15-2.39-.62-2.96-.77.17.02.11.01.1.01-.12,0-.35.03-.52.05-3.75.66-8.64,2.05-12.4,2.95-1.09.27-2.96.74-4.03,1.07,0,0-.95.28-.95.28l-.29-.55c-1.19-2.16-2.36-4.32-3.41-6.56.87.89,1.7,1.79,2.52,2.71.84.91,1.62,1.85,2.43,2.78l-1.25-.27c1.14-.76,2.86-1.46,4.09-2.06,4.36-1.84,8.6-3.63,13.33-4.45.34-.07,1.23,0,1.53.11,1.64.4,3.9.98,5.53,1.43,0,0,.13.04.13.04.02.01.01,0-.01,0-.07-.01-.3.08-.31.11,1.62-2.41,1.39-6.21,3.48-8.74,2.36-3.11,6.67-2.63,9.99-1.98,2.33.7,4.21,2.93,6.13,4.42h0Z"/>
    <path class="cls-19" d="M181.26,393.33c0,2.37.45,5.99,2.56,7.06l3.38,8.72,16.18,2.39,7.31,2.53c2.7,1.43,3.73-2.29,5.6-4.7l2.39-3.08c1.09-1.41,2.73-2.28,4.5-2.41l4.31-.32c3.28-.24,5.82-2.97,5.82-6.26v-5.38c0-1.88-.84-3.66-2.3-4.85l-41.83-37.28c-2.71-2.22-6.77-.29-6.77,3.21l-1.14,40.38Z"/>
    <g>
      <g>
        <g id="_Mirror_Repeat_" data-name="&amp;lt;Mirror Repeat&amp;gt;">
          <g class="cls-29">
            <circle class="cls-2" cx="293" cy="381.58" r="6.54"/>
          </g>
        </g>
        <g id="_Mirror_Repeat_-2" data-name="&amp;lt;Mirror Repeat&amp;gt;">
          <g class="cls-25">
            <circle class="cls-2" cx="218.92" cy="381.58" r="6.54"/>
          </g>
        </g>
      </g>
      <circle class="cls-13" cx="293" cy="381.58" r="5.36"/>
      <circle class="cls-13" cx="219.01" cy="381.58" r="5.36"/>
    </g>
    <path class="cls-19" d="M168.99,402.92c1.91-1.49,3.8-3.72,6.12-4.42,3.2-.62,7.13-1.11,9.67,1.57,2.1,2.36,2.22,5.63,3.28,8.24.2.53.54.97.52.91-.01-.03-.24-.13-.31-.11-.02,0-.03,0-.01,0l.13-.04c1.63-.45,3.89-1.03,5.53-1.43.6-.21,1.59-.15,2.21-.01,5.17,1.14,9.91,3.07,14.66,5.29.65.34,1.42.67,2.08,1.12,0,0-1.3.35-1.3.35.68-.95,1.34-1.92,2.05-2.86.7-.95,1.4-1.89,2.15-2.81-.83,2.45-1.84,4.83-2.82,7.22,0,0-1.03-.3-1.03-.3-1.08-.33-2.92-.8-4.03-1.07-3.77-.91-8.65-2.29-12.4-2.95-.17-.02-.4-.05-.52-.05,0,0-.07,0,.1-.01-.56.15-2.37.62-2.96.77-.65.14-2.41.62-3.04.74-1.61.45-3.47-.74-4.1-2.09-1.6-2.89-1.18-6.59-2.7-8.9-1.53-1.84-4.59-1.66-6.86-1.75-.39,0-.83.1-1.27.25,0,0,.08-.04.08-.04-1.72.84-3.46,1.63-5.24,2.38h0Z"/>
    <path class="cls-5" d="M275.66,406.72l-7.32-2.43c-3.66-1.05-7.9-1.67-12.26-1.67-.05,0-.11,0-.16,0-4.35,0-8.59.62-12.26,1.67l-7.32,2.43"/>
    <path class="cls-5" d="M263,395.9l-2.61-1.94c-1.3-.84-2.82-1.33-4.37-1.33-.02,0-.04,0-.06,0-1.55,0-3.06.5-4.37,1.33l-2.61,1.94"/>
    <path class="cls-10" d="M325.54,356.88l.91,38.59c0,.38.57,2.53-1.64,5.37-1.58,2.04.96,5.5-1.09,6.61-2.07,1.13-3.97-2.43-6.68-1.23-7.3,3.22-17.69,3.99-17.69,3.99-1.19.26-3.07-2.11-3.07-2.11-.54-1.37.23-2.91,1.66-3.29l9.65-2.62c6.42-1.75,11.18-7.19,12-13.79.01-.09.02-.18.03-.27,1.06-8.97-3.74-16.44-6.21-23.12-2.39-6.48,4.26-8.74,4.26-8.74,0,0,3.2-1.24,4.1-1.49,1.86-.53,3.76.19,3.76,2.12Z"/>
    <path class="cls-10" d="M186.46,356.88l-.91,38.59c0,.38-.57,2.53,1.64,5.37,1.58,2.04-.96,5.5,1.09,6.61,2.07,1.13,3.97-2.43,6.68-1.23,7.3,3.22,17.69,3.99,17.69,3.99,1.19.26,2.39-.38,2.83-1.51l.23-.6c.54-1.37-.23-2.91-1.66-3.29l-9.65-2.62c-6.42-1.75-11.18-7.19-12-13.79-.01-.09-.02-.18-.03-.27-1.06-8.97,3.74-16.44,6.21-23.12,2.39-6.48-4.26-8.74-4.26-8.74,0,0-3.2-1.24-4.1-1.49-1.86-.53-3.76.19-3.76,2.12Z"/>
    <path class="cls-7" d="M275.66,430.73c1.15.34,7.94-1.65,10.16-6.19,2.22-4.54,1.9-8.93.84-11.67"/>
    <path class="cls-7" d="M236.34,430.73c-1.15.34-7.94-1.65-10.16-6.19-2.22-4.54-1.9-8.93-.84-11.67"/>
    <path class="cls-2" d="M242.03,408.31l4.04-.97c6.89-1.65,14.07-1.6,20.93.17l3.11.8"/>
    <path class="cls-12" d="M277.7,314.82l-10.53-1.05c-7.59-.75-15.23-.75-22.82,0l-10.53,1.05"/>
    <g>
      <g id="_Mirror_Repeat_-3" data-name="&amp;lt;Mirror Repeat&amp;gt;">
        <g class="cls-28">
          <path class="cls-2" d="M281.57,405.31l5.41-.79c.76-.11,1.55-.08,2.27.18.02,0,.03.01.05.02,1.2.45,2.14,1.41,2.68,2.57l1.24,2.68"/>
        </g>
      </g>
      <g id="_Mirror_Repeat_-4" data-name="&amp;lt;Mirror Repeat&amp;gt;">
        <g class="cls-26">
          <path class="cls-2" d="M230.22,405.31l-5.41-.79c-.76-.11-1.55-.08-2.27.18-.02,0-.03.01-.05.02-1.2.45-2.14,1.41-2.68,2.57l-1.24,2.68"/>
        </g>
      </g>
    </g>
    <path class="cls-19" d="M331.06,356.65c-.74-3.17-2.27-7.03-5.87-6.98-2.47.43-5.61,3.6-7.72,5.48-5.4,5.12-10.49,10.91-15.64,16.34-5.22,5.41-10.69,11.16-16.34,16.18-2.25,1.99-4.46,3.93-6.99,5.68-1.13.78-2.53,1.24-3.89,1.24-4.6-.18-7.93-2.55-11.1-5.33,1.88.57,3.76,1.04,5.59,1.33,2.32.28,4.49.63,6.12-.65.08-.11.16-.2.25-.3l.85-.98c6.35-7.76,12.63-15.7,19.59-22.95,5.44-5.67,10.95-11.16,17.51-15.62,2.82-1.87,5.9-3.79,9.36-4.49,2.27-.5,4.71.35,6.36,1.96,2.39,2.4,2.64,6.15,1.9,9.1h0Z"/>
    <path class="cls-19" d="M180.94,356.65c-.74-2.95-.49-6.7,1.9-9.1,1.65-1.61,4.09-2.45,6.36-1.96,3.46.71,6.54,2.62,9.36,4.49,6.56,4.46,12.07,9.95,17.51,15.62,6.96,7.24,13.25,15.19,19.59,22.95,0,0,.85.98.85.98.09.1.17.19.25.3.31.29.68.49,1.1.62,3.17.83,7.31-.37,10.61-1.3-1.44,1.35-3.04,2.55-4.84,3.51-2.44,1.39-6.28,2.63-9.24,1.13-2.92-1.74-5.38-4.04-7.9-6.22-6.39-5.71-12.49-12.18-18.39-18.35-4.4-4.78-8.91-9.72-13.58-14.17-2.11-1.88-5.26-5.07-7.72-5.48-3.61-.05-5.12,3.81-5.87,6.98h0Z"/>
    <path class="cls-20" d="M279.27,394.16c-1.4-1.77-1.95-1.18-4.18-1.53h-5.91l-5.67-3.38-.19.02c-2.04,1.15-5.36,1.84-7.33,1.86-1.97-.02-5.29-.71-7.33-1.86l-.19-.02-5.67,3.38h-5.91c-2.23.36-2.78-.23-4.18,1.53l-6.86,8.66.52.39c.78-.03,1.61.01,2.46.15,3.19.5,5.71,2.08,6.48,3.85l3.86-1.43,16.81-3.16,16.81,3.16,3.86,1.43c.77-1.77,3.3-3.35,6.48-3.85.85-.13,1.68-.18,2.46-.15l.52-.39-6.86-8.66Z"/>
    <path class="cls-21" d="M297.41,439.78c-.9-.24-1.57-1.11-2.14-1.95-2.98-4.37-4.27-21.8-7.79-25.6-2.29-2.47-6.05,8.06-8.82,6.38-2.84,0-8.07-4.45-10.87-5.7-2.67-1.19-11.78-1.7-11.78-1.7h0s-9.11.51-11.78,1.7c-2.8,1.25-8.03,5.7-10.87,5.7-2.77,1.69-6.53-9.86-8.82-7.38-3.52,3.79-4.8,22.23-7.79,26.6-.58.84-1.24,1.71-2.14,1.95-3.04.82-9.81-3.74-12.68-2.28,2.83,13.19,12.2,23.64,19.46,34.29,3.43-6.18,5.33-11.73,9.05-18.94.94-1.82,2.91-4.37,4.61-3.59.9.42,1.66.64,2.29,1.5,1.89,2.56,5.28,3.11,8.02,2,2.74-1.11,6.52-5.25,8.26-7.96.77-1.2,2.4-1.84,2.4-1.84h0s1.61.64,2.38,1.84c1.74,2.71,5.52,6.85,8.26,7.96,2.74,1.11,6.13.56,8.02-2,.63-.85,1.39-1.08,2.29-1.5,1.7-.79,3.67,1.76,4.61,3.59,3.72,7.21,5.62,12.76,9.05,18.94,7.26-10.65,18.11-22.11,20.94-35.29-2.58.67-11.11,4.11-14.15,3.29Z"/>
    <path class="cls-22" d="M351.91,423.8c-.74,2.29-1.78,4.59-3.66,6.08-1.74,1.38-3.99,1.9-6.17,2.36-9.31,1.95-18.74,3.36-28.21,4.24-.69.06-1.39.12-2.07,0-.95-.17-15.05-4.68-13.96-6.67,1.16-2.13,3.7-3.02,6.02-3.74,5.43-1.68,10.86-3.35,16.29-5.03,1.86-.57,4.19,1.01,5.86.02,1.31-.77,8.43-11.93,14.87-11.37,7.38.64,11.16-7.94,13.39-6.88,3.74,1.79-.02,8.44-.35,11.06-.41,3.35-.97,6.69-2.01,9.91Z"/>
    <path class="cls-22" d="M159.12,423.31c.74,2.29,2.74,5.08,4.63,6.57,1.74,1.38,3.99,1.9,6.17,2.36,9.31,1.95,18.74,3.36,28.21,4.24.69.06,1.39.12,2.07,0,.95-.17,15.05-4.68,13.96-6.67-1.16-2.13-3.7-3.02-6.02-3.74-5.43-1.68-10.86-3.35-16.29-5.03-1.86-.57-4.19,1.01-5.86.02-1.31-.77-8.43-11.93-14.87-11.37-7.38.64-11.16-7.94-13.39-6.88-3.74,1.79.02,8.44.35,11.06.41,3.35,0,6.2,1.05,9.42Z"/>
    <line class="cls-2" x1="301.45" y1="417.72" x2="317.14" y2="414.35"/>
    <line class="cls-2" x1="210.55" y1="417.72" x2="194.86" y2="414.35"/>
  </g>
</svg>